<svg xmlns="http://www.w3.org/2000/svg" viewBox="0 0 211.57 123.97"><defs><style>.cls-1{fill:#e6ceaf;}.cls-2{fill:#693110;}</style></defs><g id="Capa_2" data-name="Capa 2"><g id="Capa_1-2" data-name="Capa 1"><path class="cls-1" d="M4.56,61l39.2,12.12a1.52,1.52,0,0,1,.7,2.44L43,77.29c-3.25,3.81-3.35,9.34.18,12.31v0a7.47,7.47,0,0,0,6.58,1.48,1.54,1.54,0,0,1,1.84,1.47,9.24,9.24,0,0,0,3.2,6.88,9.12,9.12,0,0,0,7.53,2,1.52,1.52,0,0,1,1.78,1.5,9.13,9.13,0,0,0,10.74,9.14,1.51,1.51,0,0,1,1.77,1.5c0,2.57,1.07,4.58,4.89,7.27a8.88,8.88,0,0,0,11.62-1.47,1.49,1.49,0,0,1,1.49-.46c4.43,1.07,9.2,2.57,13.87,2.58A13.5,13.5,0,0,0,121,114.14a1.49,1.49,0,0,1,1.73-.73l1,.25c8.79,2.22,14.7-2.7,16.24-7.65a1.51,1.51,0,0,1,1.72-1.05c5.49,1,11.7,1,15.29-1.17h0a9.63,9.63,0,0,0,4.54-8.33,1.53,1.53,0,0,1,1.71-1.52,9.18,9.18,0,0,0,5.84-1h0a12.77,12.77,0,0,0,6.16-11.75,6.17,6.17,0,0,0-3.12-5l-1.38-.69a1.53,1.53,0,0,1,.2-2.8L205.27,61c10.88-16,7.33-48.45-8-59.32L161.87,22.24a1.53,1.53,0,0,1-1.29.12l-31.86-11.3a20.81,20.81,0,0,0-7.78-1.47,10.53,10.53,0,0,0-6.8,2.83c-1.1,1-1.7,1.48-3,2.66a1.48,1.48,0,0,1-1.46.33l-7-2.11-.09,0c-3.49-1.33-7.07-1.56-9.88-.22-9,4.32-25.58,12.36-26.94,13a1.68,1.68,0,0,1-1.32,0L12.4,1.63C.53,12.61-4.31,42.85,4.56,61Z"/><path class="cls-2" d="M196.56.34,161.11,20.93,129.25,9.62c-5.74-2-11.21-2.69-16.12,1.65-1.1,1-1.67,1.48-3,2.68l-7-2.11c-3.73-1.43-7.74-1.77-11.06-.2-9,4.33-25.59,12.36-27,13L13.08.25c-3-1.42-4.54,3.62-2.23,4.71L64,29.92a2.68,2.68,0,0,0,2.25,0S84.94,20.85,94.3,16.33c2.64-1.27,5-.17,7.31.5L105.54,18l-6.65,5.89c-3.74,3.32-4.52,6-5.25,10.12L90.3,52.71a8.06,8.06,0,0,0,.45,4.76,6.24,6.24,0,0,0,3,3,9.38,9.38,0,0,0,7.46-.07c5.75-2.28,9.28-5.36,11.67-8.77,2.27-3.23,3.56-6.6,5.28-9.92l1.51-1.18.82,7.15c.63,5.53,2.32,9.59,6.81,12,11.37,6,31.2,13.67,43.09,19.75a2.21,2.21,0,0,1,1.14,2.15c.18,3.65-1.6,6.15-4.18,8.09-1.25.93-2.89,1-5,.37l-34.47-10.4c-3.33-1-4.82,4-1.5,5l31.34,9.44c.66,3.17-.4,5.17-2.77,6.64s-6.86,2.24-12.05.81l-24.53-6.77c-3.34-.92-4.72,4.11-1.38,5l19.38,5.33c-1,3-4.72,6.8-11.8,5l-15-3.8a2.6,2.6,0,0,0-1.29,5l8.86,2.23c-2.34,3.57-5,4.36-8.55,4.35-3.07,0-6.75-1-10.47-1.88l1.75-2a10.83,10.83,0,0,0-1.23-15.23,10.68,10.68,0,0,0-7.87-2.53,7.41,7.41,0,0,0-.9.16,10.69,10.69,0,0,0-11.6-10.8,10.51,10.51,0,0,0-2.59.56A10.68,10.68,0,0,0,72,79.33a10.85,10.85,0,0,0-7.88-2.52,10.21,10.21,0,0,0-2.31.48,8.79,8.79,0,0,0-3-5.94,9.14,9.14,0,0,0-7.38-2,11,11,0,0,0-3.54,1.22L5.63,57.51c-3-.94-4.2,4.13-1.53,5L43.29,74.61l-1.43,1.68c-3.72,4.36-3.86,10.89.36,14.48a9,9,0,0,0,7.88,1.85A10.62,10.62,0,0,0,62.62,103a10.62,10.62,0,0,0,12.5,10.64c0,3.07,1.5,5.7,5.54,8.53a10.41,10.41,0,0,0,13.63-1.72c4.34,1,9.24,2.63,14.23,2.64a15.18,15.18,0,0,0,13.79-8.22l1,.26c9.48,2.41,16.29-2.93,18.08-8.68,5.64,1,12.16,1.23,16.38-1.35A11.25,11.25,0,0,0,163,95.45a10.5,10.5,0,0,0,6.81-1.24A14.26,14.26,0,0,0,176.72,81a7.71,7.71,0,0,0-3.95-6.23c-.43-.22-.93-.45-1.4-.68l34.41-11.66c3.19-1.08,1.32-5.92-1.66-4.92L164.69,70.92c-11.81-5.41-26.23-11.43-35-15.84-3.63-1.84-3.71-5-4.05-8l-1.18-10.27,1.83-1.42c3-2.07-.38-6.49-3.15-4.12L114.53,38a2.77,2.77,0,0,0-.72.84c-2,3.85-3.28,7.18-5.19,9.88a16.72,16.72,0,0,1-9.32,6.91c-3.07,1-4.29.4-3.87-2l3.33-18.71c.73-4.12.39-4.24,3.62-7.17.05-.05,9-8,14.24-12.61,3.51-3.07,7.22-1.92,10.88-.6l33,11.7a2.63,2.63,0,0,0,2.19-.21L199.17,4.86C202.11,3.14,199.29-1.24,196.56.34ZM53,74.44a3.82,3.82,0,0,1,2.4.88c1.73,1.48,1.92,4.56-.22,7.1l-2.54,3c-2.17,2.55-5.28,2.88-7,1.41s-1.92-4.6.26-7.16l2.5-2.94A6,6,0,0,1,53,74.44ZM64.51,82a5.63,5.63,0,0,1,4.09,1.35,5.53,5.53,0,0,1,.69,7.83L65.13,96a5.62,5.62,0,0,1-8.58-7.26c1.4-1.61,2.75-3.22,4.13-4.84A5.68,5.68,0,0,1,64.51,82Zm14.11,8.76A5.63,5.63,0,0,1,83.36,100l-5.72,6.72a5.59,5.59,0,0,1-7.94.62,5.52,5.52,0,0,1-.62-7.88L74.8,92.7A5.56,5.56,0,0,1,78.62,90.73Zm12.51,10.64a5.61,5.61,0,0,1,4.11,1.33,5.54,5.54,0,0,1,.62,7.9l-5.71,6.69a5.57,5.57,0,0,1-7.93.65,5.51,5.51,0,0,1-.63-7.89l5.71-6.71A5.48,5.48,0,0,1,91.13,101.37Z"/></g></g></svg>