<svg xmlns="http://www.w3.org/2000/svg" xmlns:xlink="http://www.w3.org/1999/xlink" viewBox="0 0 129.29 163.97"><defs><style>.cls-1{fill:none;}.cls-2{fill:#ebd8c0;}.cls-3{fill:#acb9b2;}.cls-4{fill:#8b1912;}.cls-5{fill:#d8c2c5;}.cls-6{clip-path:url(#clip-path);}.cls-7{fill:#693110;}</style><clipPath id="clip-path" transform="translate(-0.21)"><rect class="cls-1" width="129.68" height="164"/></clipPath></defs><g id="Capa_2" data-name="Capa 2"><g id="Capa_1-2" data-name="Capa 1"><path class="cls-2" d="M113.83,99.65A48.65,48.65,0,1,1,65.18,51,48.65,48.65,0,0,1,113.83,99.65Z" transform="translate(-0.21)"/><path class="cls-3" d="M72.67,103.42,64.89,138,57.1,103.42" transform="translate(-0.21)"/><path class="cls-4" d="M57.1,97.05l7.79-34.56,7.78,34.56" transform="translate(-0.21)"/><path class="cls-5" d="M57.1,103.42,34,99.3l23.12-4m15.8,8.12L96,99.3l-23.13-4M56.78,90.84,45.69,83.68l7.09,11.2,3.7-.42Zm-4,12.82-7.09,11.19,11.09-7.16-.66-3.48ZM72.9,94.79l4,.09L84,83.68,72.9,90.84v4Zm.53,9.3-.53,3.6L84,114.85,76.9,103.66Zm54.33-4.79a62.9,62.9,0,1,1-62.9-62.89A62.9,62.9,0,0,1,127.76,99.3Zm-13.93.32a48.65,48.65,0,1,0-48.65,48.65A48.65,48.65,0,0,0,113.83,99.62Zm-48.94-9a8.77,8.77,0,1,0,8.77,8.77A8.78,8.78,0,0,0,64.89,90.58Zm-8.67-65a10.67,10.67,0,0,1-2-6.21C54.23,13.43,59,10,64.89,10s10.66,3.41,10.66,9.29a10.58,10.58,0,0,1-2,6.28l.35,11.17A19.27,19.27,0,0,0,84.18,19.68C84.18,9,75.55,1.76,64.89,1.76S45.59,9,45.59,19.68a19.28,19.28,0,0,0,10,16.91Zm17,.16a2.39,2.39,0,0,0-2.38-2.38H59a2.39,2.39,0,0,0-2.38,2.38V36.07H73.19V25.69Z" transform="translate(-0.21)"/><g class="cls-6"><path class="cls-7" d="M65.18,49.24a50.4,50.4,0,1,0,50.4,50.4A50.46,50.46,0,0,0,65.18,49.24Zm0,97.31a46.91,46.91,0,1,1,46.9-46.9A47,47,0,0,1,65.18,146.55Zm13-110.49A21,21,0,0,0,86,19.68C86,8.46,77,0,65,0s-21,8.46-21,19.68A21.07,21.07,0,0,0,51.71,36a64.63,64.63,0,1,0,26.46,0ZM47.41,19.68C47.41,10.3,54.79,3.5,65,3.5S82.5,10.3,82.5,19.68A17.47,17.47,0,0,1,74.93,34.1V26.68l0-.05a12.33,12.33,0,0,0,2.38-7.31c0-6.51-5.1-11-12.41-11s-12.4,4.53-12.4,11a12.29,12.29,0,0,0,2.29,7.18V34A17.53,17.53,0,0,1,47.41,19.68ZM70.8,21.56H59a4.13,4.13,0,0,0-2.39.77,9,9,0,0,1-.53-3c0-5.22,4.48-7.54,8.91-7.54s8.9,2.33,8.9,7.54a8.81,8.81,0,0,1-.56,3.1A4.11,4.11,0,0,0,70.8,21.56Zm.64,4.13v8.63H58.34V25.69a.63.63,0,0,1,.63-.63H70.8A.64.64,0,0,1,71.44,25.69ZM64.86,160.47A61.15,61.15,0,1,1,126,99.32,61.21,61.21,0,0,1,64.86,160.47ZM96.05,97.86l-17.41-3,6.58-10.39a1.45,1.45,0,0,0-2-2L72.79,89.18,66.31,60.43a1.46,1.46,0,0,0-2.85,0L57,89.23l-10.5-6.77a1.45,1.45,0,0,0-2,2L51,94.86l-17.31,3a1.46,1.46,0,0,0,0,2.88L51,103.81l-6.5,10.26a1.45,1.45,0,0,0,1.24,2.23,1.45,1.45,0,0,0,.79-.23l10.46-6.75,6.52,29a1.46,1.46,0,0,0,2.85,0l6.52-28.91,10.37,6.69a1.45,1.45,0,0,0,.79.23,1.45,1.45,0,0,0,1.24-2.23l-6.5-10.25,17.33-3.1a1.45,1.45,0,0,0,0-2.86ZM42.42,99.32l12.47-2.15a10.4,10.4,0,0,0-.24,2.18,9.87,9.87,0,0,0,.25,2.19ZM56,106.47,50.47,110,54,104.44l0-.08,1.85.33.36,1.64A1.22,1.22,0,0,0,56,106.47ZM55.9,94l-1.77.3c0-.07-.07-.16-.12-.24l-3.55-5.58L56,92.07a2.41,2.41,0,0,0,.33.15Zm9-26.64,5.22,23.18a10.2,10.2,0,0,0-10.45,0Zm0,64-5.23-23.21a10.14,10.14,0,0,0,10.45,0Zm0-24.67a7.32,7.32,0,1,1,7.31-7.32A7.32,7.32,0,0,1,64.89,106.67Zm8.8-14.6,5.51-3.56-3.54,5.58a1.2,1.2,0,0,0-.11.23L73.88,94l-.42-1.86Zm5.51,18-5.51-3.57a1,1,0,0,0-.18-.09l.38-1.68,1.74-.31s0,0,0,.06Zm-4.32-8.48a10,10,0,0,0,.25-2.2,10.47,10.47,0,0,0-.24-2.18l12.47,2.16Zm41.8-20.34a49.9,49.9,0,0,0-9-16.18,1.49,1.49,0,0,1,0-2.07,1.47,1.47,0,0,1,2.06,0,54.11,54.11,0,0,1,9.77,17.47C120.09,82.22,117.28,83,116.68,81.21Zm2.74,5.17a1.46,1.46,0,0,1,0-2.92A1.46,1.46,0,0,1,119.42,86.38ZM65,54.37a1.75,1.75,0,0,1,0,3.5A1.75,1.75,0,0,1,65,54.37Zm0,90a1.75,1.75,0,0,1,0-3.5A1.75,1.75,0,0,1,65,144.36ZM22.13,101.05a1.75,1.75,0,0,1,0-3.5A1.75,1.75,0,0,1,22.13,101.05Zm86.1-3.5a1.75,1.75,0,0,1,0,3.5A1.75,1.75,0,0,1,108.23,97.55Z" transform="translate(-0.21)"/></g></g></g></svg>