<svg xmlns="http://www.w3.org/2000/svg" viewBox="0 0 135.75 133.12"><defs><style>.cls-1{fill:#060011;}.cls-2{fill:#bb868c;}.cls-3{fill:#ffda3e;}.cls-4{fill:#fff;}</style></defs><g id="Capa_2" data-name="Capa 2"><g id="Capa_1-2" data-name="Capa 1"><path class="cls-1" d="M123.73,40.75A93.44,93.44,0,0,0,113,21.48,94.13,94.13,0,0,0,94,2,9.51,9.51,0,0,0,80.66,3.67a88.56,88.56,0,0,0-12.3,22c-.52,1.32-1,2.65-1.41,3.94A82.23,82.23,0,0,0,38.33,43.73c-1.29-.44-2.62-.86-4-1.27A88,88,0,0,0,9.41,39,9.45,9.45,0,0,0,0,48.5a94.52,94.52,0,0,0,4,27A92.89,92.89,0,0,0,12.88,95.7a39.49,39.49,0,0,0,3.83,12.82c12.27,24.73,47.93,32,79.64,16.29s47.51-48.52,35.24-73.25A39.9,39.9,0,0,0,123.73,40.75Z"/><path class="cls-2" d="M13.07,49.16a3.35,3.35,0,0,0-3.34,3.39,33.3,33.3,0,0,0,1.44,9.6,31.74,31.74,0,0,0,2.31,5.68,3.19,3.19,0,0,0,5.08.79c3.53-3.47,7.06-7,10.59-10.44a3.18,3.18,0,0,0-.67-5A32.34,32.34,0,0,0,22,50.4,33,33,0,0,0,13.07,49.16Z"/><path class="cls-2" d="M86.59,12.71a3.35,3.35,0,0,1,4.71-.6,33.35,33.35,0,0,1,6.79,7,36.52,36.52,0,0,1,3.14,5.29,3.18,3.18,0,0,1-2.45,4.52c-4.91.69-9.82,1.41-14.73,2.1a3.18,3.18,0,0,1-3.61-3.59,30.28,30.28,0,0,1,1.79-6.83A31.12,31.12,0,0,1,86.59,12.71Z"/><path class="cls-3" d="M115.38,64.41a16.94,16.94,0,0,1-.33,3.33,16.52,16.52,0,0,1-1,3.21,16.19,16.19,0,0,1-1.58,3,17.21,17.21,0,0,1-4.71,4.71,17.52,17.52,0,0,1-3,1.58,17.23,17.23,0,0,1-6.54,1.3,17.12,17.12,0,0,1-9.5-2.88,16.49,16.49,0,0,1-2.59-2.13,17.6,17.6,0,0,1-2.13-2.58,18.27,18.27,0,0,1-1.58-3,18,18,0,0,1-1-3.21,16.94,16.94,0,0,1-.33-3.33,17.11,17.11,0,0,1,.33-3.34,17.12,17.12,0,0,1,2.55-6.16,17.68,17.68,0,0,1,2.13-2.59,17,17,0,0,1,2.59-2.12,17.13,17.13,0,0,1,9.5-2.88,17.48,17.48,0,0,1,6.54,1.29,17.4,17.4,0,0,1,5.55,3.71,17,17,0,0,1,2.12,2.59,15.87,15.87,0,0,1,1.58,3,16.42,16.42,0,0,1,1,3.2A17.11,17.11,0,0,1,115.38,64.41Z"/><path class="cls-1" d="M113.61,64.41a15,15,0,0,1-.29,3,15.67,15.67,0,0,1-.88,2.88A15.32,15.32,0,0,1,111,72.93a15.23,15.23,0,0,1-6.88,5.64,15.18,15.18,0,0,1-2.88.87,15.05,15.05,0,0,1-6,0,15.18,15.18,0,0,1-2.88-.87,15.65,15.65,0,0,1-2.65-1.41,16.36,16.36,0,0,1-2.32-1.91,15.71,15.71,0,0,1-1.91-2.32,15.17,15.17,0,0,1-2.29-5.53,15.56,15.56,0,0,1,0-6,15.94,15.94,0,0,1,.87-2.88,15.39,15.39,0,0,1,8.3-8.3,15.94,15.94,0,0,1,2.88-.87,15.56,15.56,0,0,1,6,0,15.94,15.94,0,0,1,2.88.87,15.7,15.7,0,0,1,2.65,1.42,15.21,15.21,0,0,1,2.32,1.91A15.71,15.71,0,0,1,111,55.89a15,15,0,0,1,1.41,2.65,15.21,15.21,0,0,1,.88,2.88A15,15,0,0,1,113.61,64.41Z"/><path class="cls-4" d="M105.23,52.86a3.85,3.85,0,0,1-.3,1.49,3.78,3.78,0,0,1-.85,1.27,3.73,3.73,0,0,1-1.27.85,3.9,3.9,0,0,1-3,0,3.6,3.6,0,0,1-1.26-.85,3.78,3.78,0,0,1-.85-1.27,3.88,3.88,0,0,1,0-3,3.88,3.88,0,0,1,.85-1.27,3.74,3.74,0,0,1,1.26-.85,3.92,3.92,0,0,1,5.42,3.62Z"/><path class="cls-3" d="M64.22,89.77a17.83,17.83,0,0,1-.32,3.34,16.91,16.91,0,0,1-1,3.2,16.48,16.48,0,0,1-1.58,3,17,17,0,0,1-2.12,2.59A17.5,17.5,0,0,1,56.63,104a16.83,16.83,0,0,1-3,1.58,17,17,0,0,1-3.21,1,17.72,17.72,0,0,1-3.33.32,17.91,17.91,0,0,1-3.34-.32,17.24,17.24,0,0,1-3.21-1A16.74,16.74,0,0,1,37.63,104a17.07,17.07,0,0,1-7.27-17.54,16.92,16.92,0,0,1,2.55-6.16,17.29,17.29,0,0,1,4.72-4.72A17.43,17.43,0,0,1,40.58,74a17.23,17.23,0,0,1,6.55-1.3A17.23,17.23,0,0,1,53.67,74a17.52,17.52,0,0,1,3,1.58,17,17,0,0,1,2.59,2.13,17.26,17.26,0,0,1,3.7,5.54,17.24,17.24,0,0,1,1,3.21A17.72,17.72,0,0,1,64.22,89.77Z"/><path class="cls-1" d="M62.46,89.77a15.89,15.89,0,0,1-.29,3,15.34,15.34,0,0,1-.88,2.87,15,15,0,0,1-1.41,2.65,15.57,15.57,0,0,1-4.23,4.23A14.71,14.71,0,0,1,53,103.93a15.34,15.34,0,0,1-2.87.88,15.56,15.56,0,0,1-6,0,15.21,15.21,0,0,1-2.88-.88,15,15,0,0,1-2.65-1.41,15.57,15.57,0,0,1-4.23-4.23A15.7,15.7,0,0,1,33,95.64a16.09,16.09,0,0,1-.87-2.87,15.61,15.61,0,0,1,0-6A16.09,16.09,0,0,1,33,83.91a15.79,15.79,0,0,1,1.42-2.66,15.6,15.6,0,0,1,1.91-2.32,15.28,15.28,0,0,1,13.83-4.19,15.31,15.31,0,0,1,2.87.87A14.76,14.76,0,0,1,55.65,77,15.64,15.64,0,0,1,58,78.93a16.24,16.24,0,0,1,1.91,2.32,15.05,15.05,0,0,1,1.41,2.66,15.34,15.34,0,0,1,.88,2.87A15.86,15.86,0,0,1,62.46,89.77Z"/><path class="cls-4" d="M54.08,78.19A3.92,3.92,0,0,1,47.39,81a4,4,0,0,1-.85-1.27,3.92,3.92,0,0,1,6.39-4.26,3.68,3.68,0,0,1,.85,1.27A3.85,3.85,0,0,1,54.08,78.19Z"/></g></g></svg>