<svg xmlns="http://www.w3.org/2000/svg" xmlns:xlink="http://www.w3.org/1999/xlink" viewBox="0 0 159.36 143.56"><defs><style>.cls-1{fill:none;}.cls-2{clip-path:url(#clip-path);}.cls-3{fill:#ede0cf;}.cls-4{fill:#bb868c;}.cls-5{fill:#acb9b2;}.cls-6{clip-path:url(#clip-path-2);}.cls-7{fill:#8b1912;}.cls-8{clip-path:url(#clip-path-3);}.cls-9{fill:#693110;}</style><clipPath id="clip-path" transform="translate(-0.12 0)"><rect class="cls-1" width="158.17" height="139.19"/></clipPath><clipPath id="clip-path-2" transform="translate(-0.12 0)"><rect class="cls-1" x="3.35" y="22.96" width="156.13" height="120.6"/></clipPath><clipPath id="clip-path-3" transform="translate(-0.12 0)"><rect class="cls-1" x="4.65" y="33.64" width="154.83" height="109.93"/></clipPath></defs><g id="Capa_2" data-name="Capa 2"><g id="Capa_1-2" data-name="Capa 1"><g class="cls-2"><path class="cls-3" d="M82.92,107.86a14.84,14.84,0,0,0,7.44-2.4,13.93,13.93,0,0,0,4.82-4.4c1.23-2,1-4.33-.64-5.6A9.57,9.57,0,0,0,91.86,94a5,5,0,0,0-2.42-.17,21.31,21.31,0,0,0-7.72,3,8.29,8.29,0,0,0-4,5.18,4.35,4.35,0,0,0,3.36,5.55A15.58,15.58,0,0,0,82.92,107.86ZM71.79,64.16c0,3.23,1.43,4.94,3.79,5.42A7.3,7.3,0,0,0,80,68.92c2.43-1,4.84-2.07,7.25-3.09a7.92,7.92,0,0,0,2.93-2,4.76,4.76,0,0,0,.6-5.58,6.35,6.35,0,0,0-5.56-3,15.32,15.32,0,0,0-10.39,3.89C73,60.65,71.83,62.56,71.79,64.16Zm1,49.06a14.19,14.19,0,0,0,1.52-.19,4.61,4.61,0,0,0,3-7.09,5.84,5.84,0,0,0-5-2.8,8.77,8.77,0,0,1-5-1.39,10.84,10.84,0,0,0-6.63-2.17,6.75,6.75,0,0,0-3.22,12.26A9.47,9.47,0,0,0,64.07,113a15,15,0,0,1,3.27-.24C69.09,112.83,70.84,113.05,72.81,113.22ZM132,32.9c0-3.36-1-5.2-2.77-6.61a9.21,9.21,0,0,0-5.92-2,13.79,13.79,0,0,0-5.2,1.3,14.21,14.21,0,0,1-7,1,17.65,17.65,0,0,0-3.7-.09,17.07,17.07,0,0,0-8.57,4,47.17,47.17,0,0,1-8.62,5.77,10.57,10.57,0,0,0-5,5.06A7.18,7.18,0,0,0,88.4,50.9a17,17,0,0,0,7.7,1.8,36.48,36.48,0,0,0,3.91-.12c1.16-.06,2.33-.12,3.48-.28a25.18,25.18,0,0,1,7.75.22,21,21,0,0,0,6.38.48,8.92,8.92,0,0,0,5-2.33,12.43,12.43,0,0,0,2.86-4.9,21,21,0,0,1,1.38-3.22c1-1.66,2.22-3.2,3.25-4.85S132.07,34,132,32.9Zm-104,55c-.22.18-.44.34-.65.52a29.34,29.34,0,0,0-2.88,2.43,7.5,7.5,0,0,0-2,6.57,14.19,14.19,0,0,0,7.2,10.13c3.86,2.27,7.91,1.77,11.85.08,3.4-1.45,5.67-4.12,7.59-7.19a65,65,0,0,1,4-5.86c1-1.27,2.32-2.29,3.44-3.47a12.12,12.12,0,0,0,3.11-5A5.47,5.47,0,0,0,57,79.32a10.85,10.85,0,0,0-5.08-1.09c.41-1.45.92-2.89,1.22-4.38A37.07,37.07,0,0,1,58,61.36a11.39,11.39,0,0,0,1.14-10.7A7.29,7.29,0,0,0,52,45.84a18.41,18.41,0,0,0-4.27.76c-3.13.9-6.22,1.85-9.42,2.5A15.13,15.13,0,0,0,27,57.67c-.94,2-1.68,4.11-2.62,6.11a23,23,0,0,0-2.52,11.94,17.89,17.89,0,0,0,1.58,6.2c1,2.09,2.69,3.61,4,5.42A4.7,4.7,0,0,0,28.07,87.85ZM77.94,30.72l.32.1c1.6.65,3.18,1.37,4.82,1.92a9.37,9.37,0,0,0,4.76.42,10.74,10.74,0,0,0,4.69-2.32c1.38-1.08,2.67-2.28,4-3.41a36.67,36.67,0,0,1,5.8-3.48,12.34,12.34,0,0,0,2.89-2.18,5.22,5.22,0,0,0-.66-7.91A9.29,9.29,0,0,0,99.31,12c-4.67-.26-8.9,1.23-12.94,3.39a33.81,33.81,0,0,1-4.23,2.42,36.35,36.35,0,0,0-4.27,1.94,5.74,5.74,0,0,0-3.38,4.78,1.11,1.11,0,0,1-.19,0,10.76,10.76,0,0,0-4.11-1.34,12.16,12.16,0,0,0-6.12.74,14.64,14.64,0,0,0-5.94,4.72c-1.4,1.73-2.84,3.44-4.19,5.21a28.75,28.75,0,0,0-2.21,3.44,4.56,4.56,0,0,0-.31,3.42c.85,3,3.35,4.24,6.4,3.73,1.58-.26,3.15-.55,4.72-.85a34.52,34.52,0,0,0,4.3-.89,17.81,17.81,0,0,0,8.21-5.3A10.49,10.49,0,0,0,77.94,30.72ZM95.45,82.2a8.55,8.55,0,0,0,8.35-2.77,12.81,12.81,0,0,0,2.41-3.92,12.24,12.24,0,0,1,4-4.79,12.75,12.75,0,0,0,4-4.88,5.48,5.48,0,0,0-1.64-6.66,7.73,7.73,0,0,0-6.7-1.42c-.91.19-1.79.54-2.7.68a13.07,13.07,0,0,0-3.86,1.32,9.75,9.75,0,0,0-4.41,5.29c-.73,1.73-1.56,3.43-2.33,5.15C92,71.42,91.49,72.65,91,73.88a1.33,1.33,0,0,1-.24-.1,13.19,13.19,0,0,0-4-2.32A38.77,38.77,0,0,0,82,70a4.52,4.52,0,0,0-4.78,1.78A7.65,7.65,0,0,0,76,77.33a13.83,13.83,0,0,0,3,7.12,12.93,12.93,0,0,0,8.85,5.39,6.41,6.41,0,0,0,6.26-3A8.34,8.34,0,0,0,95.45,82.2Zm12.7,34c.43,0,.86.12,1.29.12a22.32,22.32,0,0,0,6.83-1.08,44.9,44.9,0,0,0,12.6-6.37,24.32,24.32,0,0,0,4.89-4.45,6.15,6.15,0,0,0,.58-1.11,9.81,9.81,0,0,0,1-1.6,1.76,1.76,0,0,0-.82-2.4,8.45,8.45,0,0,0-2.2-1,16.91,16.91,0,0,0-7.75.07,24.67,24.67,0,0,0-10,4.82,30.67,30.67,0,0,0-8.23,8.61,8.46,8.46,0,0,0-.78,2.65,1.21,1.21,0,0,0,.54,1A14,14,0,0,0,108.15,116.17Zm32.38-34a5.48,5.48,0,0,0,1,.89c1.94,1,3.92,2,5.88,3.09a25.5,25.5,0,0,1,6.91,5,13.61,13.61,0,0,1,3.5,6.71,5.11,5.11,0,0,1,0,.78c0,.56.05,1.13.07,1.68,0,.24,0,.47-.07.7s0,.32,0,.49-.05.28-.08.42l-.06.36c0,.1,0,.2-.07.29a2,2,0,0,0,0,.24,2.45,2.45,0,0,0-.08.29l-.1.3c-.09.29-.18.58-.28.87l-.12.3c0,.12-.09.23-.14.35s-.17.37-.25.56l-.51,1-.3.52-.48.79-.18.25a1,1,0,0,0-.08.14l-.18.24-.58.81-.2.24-.33.41-.2.23-.83.94-.35.37-1.07,1.07-.36.35-.94.82-.23.22-1.2,1-.24.2c-.62.45-1.24.9-1.85,1.36l-.25.18-.13.09-.26.18-1.3.87-.26.18a.57.57,0,0,0-.13.08l-.26.17-.14.08-.26.17-.79.49-.25.16-.39.23-.26.17-.39.22-.27.17-.39.22-.52.32c-.13.06-.26.14-.39.21l-.52.3-.65.35-.79.43-1.18.62-2.35,1.18-1.93.92-.55.26-.89.39-.54.26-.63.27-.55.25-.35.15-.56.25-.36.14-.56.24-.36.15-1.21.5-.36.14-.29.13-.37.13-.28.13-.37.13-2.37.92-.37.13-3.28,1.18-.77.25-3.81,1.28-.29.09-1.8.57-.29.08-1,.31-.29.09-1,.3-.3.08-.62.18-.29.09-1.15.31-.29.08-1.14.3-.3.08-.23.06-.29.08-.23.05-.29.08-.23.06-.29.07-.23.06-.29.07-.24.06-.28.07L102,135l-.29.07-.23.06-.29.07-.23.05-.29.07-.22.05-.24,0-.43.1-.29.07-.23,0-.29.07-.36.08-.29.06-.23.05-.23,0-.42.1-.3.07-.36.07-.29.06-.23,0-.42.09-.24,0-.41.09-.23,0-.35,0-.44.1-.3.06-.36.06-.29.07-.49.07-.29.06-.36.06-.43.08-.48.07-.3.06-.36.05-.42.07-.49.07-.42.07-.49.06-.31,0-.6.08-.35,0-.56.09-.37,0-.81.11-.44.05-.74.07-.56.06-.88.08-.44,0-1.12.08-.7.06-1.25.07-1.1.06c-.62,0-1.23-.07-1.85-.06-.41,0-.82.08-1.24.13H73.74l-3.21-.08-.7,0-1.52-.09-.57-.05-1.08-.1-.49,0-.87-.07-.43-.05-1-.11-.35,0-.74-.07-.43-.06-.61-.07-.44-.06-.61-.07-.43-.07-.49,0-.42-.08-.49-.05-.3-.06-.61-.08-.3-.06-.49-.07-.29-.05-.49-.08-.3-.06-1.14-.2-.29-.06-.37-.06-.29-.07-1-.19-.29-.07-.36-.08-.3-.06-1.4-.32-.29-.07-.75-.19-.3-.07a2.67,2.67,0,0,0-.51-.25,72.08,72.08,0,0,1-10.13-3.38c-.9-.37-1.8-.7-2.71-1l-.35-.15-1.09-.5-.35-.16-2.08-1-.41-.21-1-.58-.14-.07-.77-.45-.15-.08-.5-.31-.15-.08-.5-.31a1.19,1.19,0,0,0-.15-.09,2.2,2.2,0,0,1-.25-.17l-.14-.08-.26-.17-.13-.08-.27-.18-.13-.08-.26-.19-.13-.07-.26-.19-.13-.07a2.48,2.48,0,0,0-.26-.19.57.57,0,0,0-.13-.08l-.25-.19-.14-.09-.39-.29-.13-.09-.25-.18-.28-.2-.24-.19-.28-.2-.24-.2-.28-.2-.39-.32-.26-.19-.39-.33-.27-.19-.38-.33-.27-.22-.51-.43-.4-.34-.51-.45-.8-.71-.76-.73L16,116.69l-.84-.9c-.15-.18-.31-.36-.47-.53l-.57-.65c-.11-.13-.22-.27-.34-.4l-.32-.38-.33-.4-.32-.38-.2-.27c-.11-.13-.22-.25-.32-.38l-.21-.28-.3-.38-.09-.13-.31-.39-.09-.13-.3-.39-.09-.14c-.06-.08-.13-.16-.19-.25l-.19-.27-.19-.25-.08-.13c-.1-.13-.2-.26-.29-.4l-.09-.15a2.15,2.15,0,0,1-.18-.24l-.09-.14-.18-.25a1.1,1.1,0,0,0-.09-.14c0-.08-.12-.16-.17-.25L9.1,108l-.17-.25-.09-.14a2.2,2.2,0,0,0-.17-.25l-.09-.15-.16-.25-.09-.15c-.11-.17-.22-.33-.32-.5l-.08-.13-.32-.52a.91.91,0,0,1-.07-.14L7.22,105l-.07-.15L6.7,104c-.06-.13-.14-.26-.21-.39s-.15-.45-.25-.66q-1.19-2.58-2.38-5.16c-.13-.29-.31-.55-.46-.82-.73-2.68-1.59-5.32-2.16-8A40.82,40.82,0,0,1,.12,80.1a47.62,47.62,0,0,1,1.8-11.85A41.11,41.11,0,0,1,7.33,56.81c1.53-2.36,3.07-4.73,4.76-7s3.61-4.56,5.56-6.71c2.58-2.85,5.2-5.67,8-8.34s5.65-5.14,8.53-7.65A112.1,112.1,0,0,1,46.46,18a119.07,119.07,0,0,1,13.83-7.7A112.7,112.7,0,0,1,74.48,4.76,108.15,108.15,0,0,1,89.31,1.19c2.31-.38,4.64-.63,7-.81C98.8.17,101.34,0,103.87,0a63.76,63.76,0,0,1,13.41,1.47,50.5,50.5,0,0,1,12,4.22A42,42,0,0,1,139,12.38a39.36,39.36,0,0,1,7.27,9.37,49.77,49.77,0,0,1,4.24,10.14c.2.61.36,1.24.54,1.85.12.79.22,1.58.36,2.36a39.21,39.21,0,0,1,.5,11.74,36.8,36.8,0,0,1-4.07,12.73c-1.94,3.74-4.09,7.37-6.18,11A27.25,27.25,0,0,0,139,77.3c-.49,1.72-.42,3.33,1,4.61a2.25,2.25,0,0,0,.54.26" transform="translate(-0.12 0)"/></g><path class="cls-4" d="M74.33,113a4.61,4.61,0,0,0,3-7.09,5.84,5.84,0,0,0-5-2.8,8.77,8.77,0,0,1-5-1.39,10.84,10.84,0,0,0-6.63-2.17,6.75,6.75,0,0,0-3.22,12.26A9.47,9.47,0,0,0,64.07,113a15,15,0,0,1,3.27-.24c1.75.06,3.5.28,5.47.45A14.19,14.19,0,0,0,74.33,113Zm18.24-37.4a10.08,10.08,0,0,1,2.88,6.57,8.55,8.55,0,0,0,8.35-2.77,12.81,12.81,0,0,0,2.41-3.92,12.24,12.24,0,0,1,4-4.79,12.75,12.75,0,0,0,4-4.88,5.48,5.48,0,0,0-1.64-6.66,7.73,7.73,0,0,0-6.7-1.42c-.91.19-1.79.54-2.7.68a13.07,13.07,0,0,0-3.86,1.32,9.75,9.75,0,0,0-4.41,5.29c-.73,1.73-1.56,3.43-2.33,5.15C92,71.42,91.49,72.65,91,73.88ZM28.07,87.85a4.7,4.7,0,0,1-.58-.51c-1.33-1.81-3-3.33-4-5.42a17.89,17.89,0,0,1-1.58-6.2,23,23,0,0,1,2.52-11.94c.94-2,1.68-4.1,2.62-6.11A15.13,15.13,0,0,1,38.31,49.1c3.2-.65,6.29-1.6,9.42-2.5A18.41,18.41,0,0,1,52,45.84a7.29,7.29,0,0,1,7.12,4.82A11.39,11.39,0,0,1,58,61.36,37.07,37.07,0,0,0,53.1,73.85c-.3,1.49-.81,2.93-1.22,4.38l-.83.15a30.72,30.72,0,0,0-8.24,2.94c-1.2.6-2.36,1.32-3.6,1.81a95.78,95.78,0,0,0-10.89,4.65,1,1,0,0,1-.25.07" transform="translate(-0.12 0)"/><path class="cls-5" d="M90.36,105.46a13.93,13.93,0,0,0,4.82-4.4c1.23-2,1-4.33-.64-5.6A9.57,9.57,0,0,0,91.86,94a5,5,0,0,0-2.42-.17,21.31,21.31,0,0,0-7.72,3,8.29,8.29,0,0,0-4,5.18,4.35,4.35,0,0,0,3.36,5.55,15.58,15.58,0,0,0,1.8.25A14.84,14.84,0,0,0,90.36,105.46ZM75.58,69.58A7.3,7.3,0,0,0,80,68.92c2.43-1,4.84-2.07,7.25-3.09a7.92,7.92,0,0,0,2.93-2,4.76,4.76,0,0,0,.6-5.58,6.35,6.35,0,0,0-5.56-3,15.32,15.32,0,0,0-10.39,3.89c-1.77,1.5-3,3.41-3,5C71.78,67.39,73.22,69.1,75.58,69.58Zm.58-40.45a20.8,20.8,0,0,0,1.78,1.59l.32.1c1.6.65,3.18,1.37,4.82,1.92a9.37,9.37,0,0,0,4.76.42,10.74,10.74,0,0,0,4.69-2.32c1.38-1.08,2.67-2.28,4-3.41a36.67,36.67,0,0,1,5.8-3.48,12.34,12.34,0,0,0,2.89-2.18,5.22,5.22,0,0,0-.66-7.91A9.29,9.29,0,0,0,99.31,12c-4.67-.26-8.9,1.23-12.94,3.39a33.81,33.81,0,0,1-4.23,2.42,36.35,36.35,0,0,0-4.27,1.94,5.74,5.74,0,0,0-3.38,4.78A6.47,6.47,0,0,0,76.16,29.13ZM28.07,87.85a1,1,0,0,0,.25-.07,95.78,95.78,0,0,1,10.89-4.65c1.24-.49,2.4-1.21,3.6-1.81a30.72,30.72,0,0,1,8.24-2.94l.83-.15A10.85,10.85,0,0,1,57,79.32a5.47,5.47,0,0,1,2.74,6.76,12.12,12.12,0,0,1-3.11,5c-1.12,1.18-2.44,2.2-3.44,3.47a65,65,0,0,0-4,5.86c-1.92,3.07-4.19,5.74-7.59,7.19-3.94,1.69-8,2.19-11.85-.08a14.19,14.19,0,0,1-7.2-10.13,7.5,7.5,0,0,1,2-6.57,29.34,29.34,0,0,1,2.88-2.43c.21-.18.43-.34.65-.52" transform="translate(-0.12 0)"/><g class="cls-6"><path class="cls-7" d="M27.13,126.05l-.26-.19Zm115.31-7,.25-.16Zm1.83-1.15.26-.18Zm-2.48,1.55.26-.17Zm15.76-16.66a2,2,0,0,1,0-.24A2,2,0,0,0,157.55,102.84Zm-16.42,17,.27-.17Zm16.34-16.76-.1.3Zm-.38,1.17-.12.3Zm-11.26,12.6.26-.18ZM24,123.83l-.24-.2Zm.52.39-.24-.19Zm.53.38-.25-.18Zm121.17-8,.25-.18ZM26,125.26l-.25-.19Zm.39.27a2.48,2.48,0,0,0-.26-.19A2.48,2.48,0,0,1,26.35,125.53Zm.39.26-.26-.19ZM8.42,106.91l.16.25ZM143.88,118.2l.26-.17ZM8.67,107.31a2.2,2.2,0,0,1,.17.25A2.2,2.2,0,0,0,8.67,107.31Zm.26.39.17.25Zm146.36.13-.18.25Zm-146.1.26c.05.09.12.17.17.25C9.31,108.26,9.24,108.18,9.19,108.09Zm145.84.13-.18.24ZM27.53,126.31l-.27-.18ZM9.45,108.48l.18.25Zm.26.39.19.24C9.83,109,9.78,109,9.71,108.87Zm18.21,17.69-.26-.17Zm.39.25a2.2,2.2,0,0,1-.25-.17A2.2,2.2,0,0,0,28.31,126.81Zm96.89.76.29-.13Zm-.65.26.28-.13Zm23.77-12.74.24-.2Zm1.44-1.17.23-.22Zm-6.28,4.53.26-.17ZM10.74,110.31a2.35,2.35,0,0,0,.19.25C10.87,110.48,10.8,110.4,10.74,110.31Zm93.83,24,.23-.06Zm49.7-25.07-.2.24Zm-50.22,25.2.23-.05Zm-.52.14.23-.06Zm-8.38,1.9-.23,0Zm.41-.09.24,0Zm-85.2-26.63.19.25Zm85.86,26.5.23,0Zm6.79-1.55.23-.06Zm-.53.13.24-.06ZM102,135l.24-.06Zm-3.68.85-.23.05Zm55.46-25.93-.2.23Zm-52.3,25.21.23-.06Zm-2.22.51.23,0Zm1.7-.39.23-.05Zm-.51.12.22-.05Zm-.67.16.43-.11Zm57.93-33.22.06-.36Zm-59.1,33.48.36-.08ZM97.4,136l.42-.1Zm-.66.14.36-.07Zm-44.37,0,.36.08Zm2,.41.37.06Zm39.81.06.44-.1Zm-.66.12.36-.06Zm-3,.52.36-.05Zm1.57-.26.36-.06ZM11.81,111.74l.3.38Zm-.4-.52.31.39ZM25.57,125l-.39-.29Zm125.36-12.1.36-.35Zm-138.09.17.32.38Zm139.87-2-.35.37ZM11,110.7l.3.39Zm11.81,12.22-.39-.33Zm-.66-.52-.38-.33ZM10,109.26l.29.4C10.18,109.53,10.08,109.4,10,109.26Zm3.5,4.57.32.38Zm10,9.6-.39-.32Zm-11.16-11c.1.13.21.25.32.38C12.53,112.65,12.42,112.53,12.32,112.4Zm75.07,25.37-.56.09Zm52.83-17.34.52-.32Zm-.91.51.52-.3ZM7.22,105l.32.51ZM29.61,127.6l-.5-.31Zm128.2-26.07c0-.17,0-.33,0-.49C157.84,101.2,157.82,101.36,157.81,101.53ZM29,127.21l-.5-.31Zm59.69,10.4.49-.06Zm-28.84-.06.49,0Zm29.75-.07.49-.07Zm37.86-10.82.56-.25ZM58.9,137.42l.49.05Zm69.44-11.15.56-.25Zm-37.21,11,.48-.07Zm-33.93-.08.49.07Zm72.05-11.28.55-.25Zm26.82-19.35-.3.52ZM8,106.26c.1.17.21.33.32.5C8.22,106.59,8.11,106.43,8,106.26Zm122.42,19.09.54-.26ZM56.42,137l.49.08ZM7.61,105.61l.32.52ZM131.86,124.7l.55-.26ZM92.69,137l.49-.07Zm64.14-32c-.08.19-.17.38-.25.56C156.66,105.32,156.75,105.14,156.83,105ZM108,133.42l.62-.18ZM21.52,121.85l-.51-.43Zm-.91-.77-.51-.45ZM61.77,137.8l.62.07Zm26.57-.14-.6.08Zm-27.61,0,.61.07ZM58,137.28l.61.08Zm-8.36-1.69.75.19Zm34.84,2.54.74-.07Zm53.4-16.41.79-.43ZM85.65,138l.81-.11Zm-55.12-9.88-.77-.45ZM6.7,104l.45.77Zm56.12,33.89.74.07ZM14.15,114.61l.57.65ZM83,138.27l.88-.08Zm-17.73-.08.87.07Zm-.43-.05-1-.11Zm44-5,1-.3Zm1.3-.39,1-.31ZM53,136.38l1,.19ZM19.3,119.92l-.76-.73Zm12.4,8.86-1-.58Zm3.93,1.91-1.09-.5Zm69.47,3.51,1.14-.3Zm1.43-.38,1.15-.31Zm-38.79,4.57-1.08-.1ZM55,136.76l1.14.2Zm70.87-9.46,1.21-.5Zm-43.26,11-1.12.08Zm-67.4-22.52.84.9Zm35.48,20.06,1.4.32Zm30.1,2.6-1.26.07Zm30.72-6.07,1.8-.57Zm-43.18,6.06,1.52.09ZM34.19,130l-2.08-1Zm87.62-1.15,2.37-.92Zm12.53-5.36,2.35-1.18Zm-16.18,6.67,3.28-1.18Zm-41.59,8.33c-.41,0-.82.08-1.24.13l3.09-.07C77.8,138.56,77.19,138.51,76.57,138.52Zm37-6.8,3.81-1.28Zm-43,6.85,3.21.08Zm-21.71-3.3a72.08,72.08,0,0,1-10.13-3.38c-.9-.37-1.8-.7-2.71-1a2.87,2.87,0,0,0,.49.31c2.84,1.08,5.67,2.19,8.54,3.2,1.41.49,2.88.78,4.32,1.17A2.67,2.67,0,0,0,48.82,135.27ZM90.71,73.78a13.19,13.19,0,0,0-4-2.32A38.77,38.77,0,0,0,82,70a4.52,4.52,0,0,0-4.78,1.78A7.65,7.65,0,0,0,76,77.33a13.83,13.83,0,0,0,3,7.12,12.93,12.93,0,0,0,8.85,5.39,6.41,6.41,0,0,0,6.26-3,8.34,8.34,0,0,0,1.37-4.68,10.08,10.08,0,0,0-2.88-6.57L91,73.88A1.33,1.33,0,0,1,90.71,73.78ZM74.3,24.51a10.76,10.76,0,0,0-4.11-1.34,12.16,12.16,0,0,0-6.12.74,14.64,14.64,0,0,0-5.94,4.72c-1.4,1.73-2.84,3.44-4.19,5.21a28.75,28.75,0,0,0-2.21,3.44,4.56,4.56,0,0,0-.31,3.42c.85,3,3.35,4.24,6.4,3.73,1.58-.26,3.15-.55,4.72-.85a34.52,34.52,0,0,0,4.3-.89,17.81,17.81,0,0,0,8.21-5.3,10.49,10.49,0,0,0,2.89-6.67,20.8,20.8,0,0,1-1.78-1.59,6.47,6.47,0,0,1-1.67-4.6A1.11,1.11,0,0,1,74.3,24.51Zm55,1.78a9.21,9.21,0,0,0-5.92-2,13.79,13.79,0,0,0-5.2,1.3,14.21,14.21,0,0,1-7,1,17.65,17.65,0,0,0-3.7-.09,17.07,17.07,0,0,0-8.57,4,47.17,47.17,0,0,1-8.62,5.77,10.57,10.57,0,0,0-5,5.06A7.18,7.18,0,0,0,88.4,50.9a17,17,0,0,0,7.7,1.8,36.48,36.48,0,0,0,3.91-.12c1.16-.06,2.33-.12,3.48-.28a25.18,25.18,0,0,1,7.75.22,21,21,0,0,0,6.38.48,8.92,8.92,0,0,0,5-2.33,12.43,12.43,0,0,0,2.86-4.9,21,21,0,0,1,1.38-3.22c1-1.66,2.22-3.2,3.25-4.85s2-3.67,1.94-4.8C132,29.54,131.07,27.7,129.26,26.29Zm30,75.78.06.25ZM150,119.85l-.25.21C149.82,120,149.91,119.93,150,119.85Zm-.77.6.25-.19Zm-.52.39.25-.19Zm-.53.38.26-.18Zm-.39.27.26-.18Zm-.54.37.28-.18Zm-.12.09-.27.19Zm-.66.45.27-.19Zm-.12.07c-.09.07-.18.12-.27.18C146.16,122.59,146.25,122.54,146.34,122.47Zm-.67.44.28-.18Zm-.76.49-.27.17Zm-1.33.81.28-.16Zm-.37.23c-.1,0-.18.11-.28.17C143,124.55,143.11,124.49,143.21,124.44Zm-38.77,15.19-.25.06Zm54.66-31.8a1.83,1.83,0,0,1,.06-.25A1.83,1.83,0,0,0,159.1,107.83ZM12.17,115l.19.27ZM26,129l.26.2Zm129.48-14.38c-.07.08-.14.17-.22.25C155.32,114.78,155.39,114.69,155.46,114.61Zm.31-.4c.07-.09.14-.17.2-.26C155.91,114,155.84,114.12,155.77,114.21Zm.4-.52.19-.26ZM27.81,130.31l.26.18ZM156.63,113l-.19.26ZM28.2,130.57l.26.19Zm.39.26a2.48,2.48,0,0,1,.26.19A2.48,2.48,0,0,0,28.59,130.83Zm.39.26.27.18Zm128-18.57.17-.27ZM95.56,141.58l-.37.08Zm63.74-34.65-.08.37Zm.06-4.21c0,.12,0,.25.06.38C159.4,103,159.39,102.85,159.36,102.72ZM98.83,140.93l-.38.08Zm-85.6-24.51.31.4Zm-.4-.52c.11.13.21.26.31.4C13,116.16,12.94,116,12.83,115.9ZM151,119l.39-.33Zm-138.6-3.64c.11.14.21.27.3.41C12.65,115.64,12.55,115.51,12.44,115.37Zm13.92,13.91.41.29ZM12.08,114.87c-.1-.14-.19-.28-.29-.41C11.89,114.59,12,114.73,12.08,114.87Zm1.66,2.21.31.39ZM25.46,128.6l.4.31Zm124.8-8.94.39-.33ZM24.8,128.09l.4.32Zm67,14.14-.51.08ZM145,123.32l.51-.33ZM30.42,132l.52.32Zm62.14,10.11-.5.08Zm64.66-30,.31-.53Zm-14.66,12.71-.53.31Zm16.86-18.69c0,.17,0,.34-.07.51C159.37,106.48,159.4,106.31,159.42,106.14ZM94.91,141.7l-.5.1Zm-.78.14-.5.09Zm50.38-18.19L144,124ZM93.34,142l-.5.08Zm16.46-3.78-.64.19ZM22.71,126.4l.52.44Zm39,16-.63-.09ZM91,142.35l-.63.1Zm63.34-26.45.47-.51ZM23.49,127.05l.54.43Zm66.59,15.44-.63.09Zm-.92.12-.63.09Zm-65-15,.53.44Zm-9.57-9.44-.43-.54Zm138-.49c-.16.15-.33.31-.51.46C152.27,118,152.44,117.79,152.6,117.64Zm-137.81.74.44.53C15.08,118.73,14.93,118.56,14.79,118.38ZM158.94,101c.07.26.15.51.22.76C159.09,101.54,159,101.29,158.94,101Zm-17.83,24.63.79-.45ZM62,142.47l.76.11Zm1,.14.76.1Zm25.07.14-.76.09Zm51.82-16.44.79-.43ZM16,119.82l-.58-.66Zm5.77,5.79.67.58ZM100,140.68l-.91.19Zm1.17-.27-.9.2ZM85.77,143l-.89.08Zm1.3-.14-.89.09ZM66.16,143l-.89-.09ZM65,142.84l-.89-.1ZM26.89,129.66l.8.56Zm2.49,1.69.91.57Zm-8.75-6.79.78.72ZM157.74,111.2c.18-.35.35-.71.53-1.07C158.09,110.49,157.92,110.85,157.74,111.2ZM84.46,143.13l-1.15.1Zm-16.87,0L66.45,143Zm-50.4-22c-.27-.31-.55-.61-.84-.93C16.64,120.52,16.92,120.82,17.19,121.13Zm52,22.11-1.28-.11Zm64.53-13.8-1.35.61ZM60.81,142.31l-1.42-.21Zm22,1-1.42.09ZM71,143.36l-1.41-.09Zm88-35.26-.59,1.68Zm-27,22.11-1.74.76ZM31.07,132.39l1.7,1Zm128.4-28.75v0ZM98.18,141.07l-2.34.46ZM18.05,122l1.53,1.53Zm85.87,17.72-2.47.59Zm-29.79,3.73-2.46-.09Zm-15-1.43-2.72-.48Zm20.68,1.5a5.75,5.75,0,0,0,.89-.16l-2.72.09C78.57,143.52,79.18,143.57,79.79,143.56Zm78.06-44.9c0,.56.05,1.13.07,1.69l.21-1,.68,1.31ZM11,113.47a10.18,10.18,0,0,0,.73.87l-2-3C10.12,112.05,10.53,112.78,11,113.47Zm95.35,25.78c.87-.24,1.71-.53,2.57-.79l-4.17,1.1C105.26,139.46,105.8,139.39,106.32,139.25Zm28.4-10.18,4.51-2.26a1.45,1.45,0,0,0,.32-.29l-5.25,2.63A1.42,1.42,0,0,0,134.72,129.07Zm-24.29,9a177.6,177.6,0,0,0,17-5.83c.85-.35,1.67-.77,2.51-1.16a2.54,2.54,0,0,0-.37.1,172.64,172.64,0,0,1-16.37,5.91c-1,.32-2.06.66-3.09,1A2.11,2.11,0,0,0,110.43,138.11ZM5,100.86l-.07.16s-.06-.07-.07-.1,0-.07,0-.11S5,100.85,5,100.86ZM6.24,103q-1.19-2.58-2.38-5.16c-.13-.29-.31-.55-.46-.82,0,.1,0,.21.05.31a51,51,0,0,0,4.77,11.73c.42.75.93,1.44,1.4,2.15a4.84,4.84,0,0,0-.21-.47,50.93,50.93,0,0,1-4.3-8.81c-.08-.23-.13-.48-.19-.73l.17,0c.12.22.23.44.36.66.34.61.7,1.23,1,1.85C6.41,103.43,6.34,103.2,6.24,103ZM32.9,133.44c1.37.65,2.73,1.32,4.11,1.95a83.43,83.43,0,0,0,18.68,6,3.45,3.45,0,0,1,.42.14c-.55-.07-1.1-.09-1.64-.2a83.65,83.65,0,0,1-17.63-5.84c-1.16-.53-2.31-1.1-3.45-1.67a3.05,3.05,0,0,1-.49-.38" transform="translate(-0.12 0)"/></g><g class="cls-8"><path class="cls-9" d="M4.81,100.92s.05.06.07.1l.07-.16s-.06,0-.1,0S4.81,100.89,4.81,100.92Zm112.87,6a22.57,22.57,0,0,1,10.08-4,14.65,14.65,0,0,1,6.58.34,9.81,9.81,0,0,0,1-1.6,1.76,1.76,0,0,0-.82-2.4,8.45,8.45,0,0,0-2.2-1,16.91,16.91,0,0,0-7.75.07,24.67,24.67,0,0,0-10,4.82,30.67,30.67,0,0,0-8.23,8.61,8.46,8.46,0,0,0-.78,2.65,1.21,1.21,0,0,0,.54,1,14,14,0,0,0,2.07.71C110.6,112.34,114,109.53,117.68,106.92Zm24.73-29c2.07-3.77,4.3-7.46,6.36-11.23,4.28-7.82,6-16.11,4.37-25a42.49,42.49,0,0,0-2.08-8c.12.79.22,1.58.36,2.36a39.21,39.21,0,0,1,.5,11.74,36.8,36.8,0,0,1-4.07,12.73c-1.94,3.74-4.09,7.37-6.18,11A27.25,27.25,0,0,0,139,77.3c-.49,1.72-.42,3.33,1,4.61a2.25,2.25,0,0,0,.54.26C141.15,80.76,141.67,79.3,142.41,78ZM104.8,134.28l.3-.08,1.14-.3.29-.08,1.15-.31.29-.09.62-.18.3-.08,1-.3.29-.09,1-.31.29-.08,1.8-.57.29-.09,3.81-1.28.77-.25,3.28-1.18.37-.13,2.37-.92.37-.13.28-.13.37-.13.29-.13.36-.14,1.21-.5.36-.14.56-.25.36-.14.56-.25.35-.15.55-.25.63-.27.54-.26.89-.39.55-.26,1.93-.92,2.35-1.18,1.18-.62.79-.43.65-.35.52-.3c.13-.07.26-.15.39-.21l.52-.32.39-.22.27-.17.39-.22.26-.17.39-.23.25-.16.79-.49.26-.17.14-.08.26-.17a.57.57,0,0,1,.13-.08l.26-.18,1.3-.87.26-.18.13-.09.25-.18c.61-.46,1.23-.91,1.85-1.36l.24-.2,1.2-1,.23-.22.94-.82.36-.35,1.07-1.07.35-.37.83-.94.2-.23.33-.41.2-.24.58-.81.18-.24a1,1,0,0,1,.08-.14l.18-.25.48-.79.3-.52.51-1c.08-.18.17-.37.25-.56s.1-.23.14-.35l.12-.3c.1-.29.19-.58.28-.87l.1-.3a2.45,2.45,0,0,1,.08-.29,2,2,0,0,1,0-.24c0-.09.05-.19.07-.29l.06-.36c0-.14.05-.28.08-.42s0-.33,0-.49.05-.46.07-.69l.21-1,.68,1.31c0,.12.08.24.13.36s.15.51.22.76a2.86,2.86,0,0,1,.07.28l.06.25c0,.13.05.26.07.4s0,.25.06.38,0,.36.05.54v2c0,.18,0,.36-.05.54s0,.34-.07.51a2.33,2.33,0,0,0,0,.28l-.08.37-.06.28a1.83,1.83,0,0,0-.06.25c0,.09,0,.18-.08.27l-.59,1.68c-.05.12-.11.24-.16.35-.18.36-.35.72-.53,1.07l-.21.39-.31.53-.08.13-.17.27c-.12.17-.23.34-.34.52l-.19.26-.08.13-.19.26-.2.26c-.06.09-.13.17-.2.26s-.21.26-.31.4-.14.17-.22.25-.29.35-.44.53l-.47.51-1.73,1.74c-.16.15-.33.31-.51.46s-.44.39-.66.58L151,119l-.39.32-.39.33-.27.19-.25.21-.27.2-.25.19-.27.2-.25.19-.27.2-.26.18-.13.09-.26.18-.26.19-.28.18-.12.09-.27.19-.12.07-.27.19-.12.07c-.09.07-.18.12-.27.18l-.12.08-.28.18-.12.08-.51.33a.57.57,0,0,0-.13.08l-.27.17-.13.08L144,124l-.13.08-.28.16-.37.23c-.1,0-.18.11-.28.17l-.37.22-.53.31-.13.07-.79.45c-.13.07-.26.14-.38.22l-.79.43-.39.21-5.25,2.63-.61.29-1.35.61-.35.16-1.74.76-.35.15a2.54,2.54,0,0,0-.37.1,172.64,172.64,0,0,1-16.37,5.91c-1,.32-2.06.66-3.09,1l-.27.07-.64.19-.27.07-4.17,1.1-.28.07-.25.06-.27.07-2.47.59-.27.06-.9.2-.27.07-.91.19-.27.06-.38.08-.27.06-2.34.46-.28.05-.37.08-.28,0-.5.1-.28,0-.5.09-.29,0-.5.08-.28.05-.5.08-.28,0-.51.08-.28,0-.63.1-.28,0-.63.09-.29,0-.63.09-.41.05-.76.09-.29,0-.89.09-.41.05-.89.08-.42,0-1.15.1-.54,0-1.42.09-.67,0-2.72.09H74.13l-2.46-.09-.68,0-1.41-.09-.42,0-1.28-.11-.29,0L66.45,143l-.29,0-.89-.09-.29,0-.89-.1-.28,0-.76-.1-.28,0-.76-.11-.29,0-.63-.09-.28,0-1.42-.21-.28,0-2.72-.48-.28-.05a3.45,3.45,0,0,0-.42-.14,83.43,83.43,0,0,1-18.68-6c-1.38-.63-2.74-1.3-4.11-1.95l-.13-.08-1.7-1-.13-.07-.52-.32-.13-.08-.91-.57-.13-.08-.27-.18-.13-.07a2.48,2.48,0,0,0-.26-.19l-.13-.07-.26-.19-.13-.08-.26-.18-.12-.09-.8-.56-.12-.09-.41-.29-.12-.09L26,129l-.12-.08-.4-.31-.26-.19-.4-.32-.12-.08-.53-.44a.34.34,0,0,1-.12-.09l-.54-.43-.26-.21-.52-.44-.25-.21-.67-.58c-.12-.12-.25-.22-.38-.33l-.78-.72-1.05-1L18.05,122c-.28-.31-.57-.61-.86-.91s-.55-.61-.84-.93l-.33-.38-.58-.66-.21-.25-.44-.53-.21-.25-.43-.54-.1-.12-.31-.39c-.07-.09-.14-.17-.2-.26l-.31-.4-.09-.12c-.1-.14-.2-.27-.31-.4a.54.54,0,0,0-.09-.12c-.09-.14-.19-.27-.3-.41a.44.44,0,0,0-.08-.11l-.19-.27-.09-.12c-.1-.14-.19-.28-.29-.41l-.09-.12-2-3-.08-.13a4.84,4.84,0,0,0-.21-.47,50.93,50.93,0,0,1-4.3-8.81c-.08-.23-.13-.48-.19-.73l.17,0c.12.22.23.44.36.66.34.61.7,1.23,1,1.85.07.13.15.26.21.39l.45.77.07.15.32.51a.91.91,0,0,0,.07.14l.32.52.08.13c.1.17.21.33.32.5l.09.15.16.25.09.15a2.2,2.2,0,0,1,.17.25l.09.14.17.25.09.14c.05.09.12.17.17.25a1.1,1.1,0,0,1,.09.14l.18.25a1,1,0,0,1,.08.14l.19.24.09.15.29.4.08.13.19.25.19.27a2.35,2.35,0,0,0,.19.25l.09.14.3.39.09.13.31.39.09.13.3.38.21.28c.1.13.21.25.32.38l.2.27.32.38.33.4.32.38c.12.13.23.27.34.4l.57.65c.16.17.32.35.47.53l.84.9,2.51,2.5.76.73.8.71.51.45.4.34.51.43.27.22.38.33.27.19.39.33.26.19.39.32.28.2.24.2.28.2.24.19.28.2.25.18.13.09.39.29.14.09.25.19a.57.57,0,0,1,.13.08,2.48,2.48,0,0,1,.26.19l.13.07.26.19.13.07.26.19.13.08.27.18.13.08.26.17.14.08a2.2,2.2,0,0,0,.25.17,1.19,1.19,0,0,1,.15.09l.5.31.15.08.5.31.15.08.77.45.14.07,1,.58.41.21,2.08,1,.35.16,1.09.5.35.15a2.87,2.87,0,0,0,.49.31c2.84,1.08,5.67,2.19,8.54,3.2,1.41.49,2.88.78,4.32,1.17l.3.07.75.19.29.07,1.4.32.3.06.36.08.29.07,1,.19.29.07.37.06.29.06,1.14.2.3.06.49.08.29.05.49.07.3.06.61.08.3.06.49.05.42.08.49,0,.43.07.61.07.43.06.62.07.43.06.74.07.35,0,1,.11.43.05.87.07.49,0,1.08.1.57.05,1.52.09.7,0,3.21.08h1.59l3.09-.07,1.09-.06,1.26-.07.7-.06,1.12-.08.44,0,.88-.08.56-.06.74-.07.44-.05.81-.11.37,0,.56-.09.35,0,.6-.08.31,0,.49-.06.42-.07.49-.07.42-.07.36-.05.3-.06.48-.07.43-.08.36-.06.29-.06.49-.07.29-.07.36-.06.3-.06.44-.1.35,0,.23,0,.41-.09.24,0,.42-.09.23,0,.29-.06.36-.07.3-.07.42-.1.23,0,.23-.05.29-.06.36-.08.29-.07.23,0,.29-.06.43-.11.24,0,.22-.05.29-.07.23-.05.29-.07.23-.06L102,135l.24-.06.28-.07.24-.06.29-.07.23-.06.29-.07.23-.06.29-.08.23-.05.29-.08.23-.06" transform="translate(-0.12 0)"/></g></g></g></svg>