<svg xmlns="http://www.w3.org/2000/svg" xmlns:xlink="http://www.w3.org/1999/xlink" viewBox="0 0 280.6 211.23"><defs><style>.cls-1{fill:none;}.cls-2{clip-path:url(#clip-path);}.cls-3{fill:#060011;}</style><clipPath id="clip-path" transform="translate(-52.39 -90.09)"><rect class="cls-1" width="333.19" height="301.33"/></clipPath></defs><g id="Capa_2" data-name="Capa 2"><g id="Capa_1-2" data-name="Capa 1"><g class="cls-2"><path class="cls-3" d="M327.33,248.46c-7.64-2.92-25.76-10.31-36.35-18.48-.55-.41-1.1-.85-1.59-1.26a25.05,25.05,0,0,1-4.75-5.05c-8.66-12.87-62.15-55.94-62.15-55.94s-2.23-3.64-6.29-9.31c-.14.07-.28.19-.41.27-1,.63-2,1.29-2.9,2l-.66.49c-.28.19-.53.39-.8.58s-.52.41-.77.6c-.64-.19-1.3-.41-2-.63s-1.32-.41-2-.61q-1.78-.53-3.48-.93c-1.43-.36-2.84-.66-4.22-.94-.46-.11-.93-.19-1.4-.28l-1.05-.19-2.4-.35c-.77-.14-1.55-.23-2.32-.31-2.09-.25-4.11-.39-6-.47l-1.08,0c-1-.05-2-.05-3-.05a8.47,8.47,0,0,0-1.68.16,2.6,2.6,0,0,0-.47.09,7.66,7.66,0,0,0-1.54.49c-.14.06-.28.14-.42.19l-.6.34-.39.25a6.57,6.57,0,0,0-1.16.88l-.16.17a9.54,9.54,0,0,0-3,7,92.53,92.53,0,0,0,2.95,23.16c.3,1.24.66,2.51,1.05,3.78.63,2,1.29,4,2,5.84a6.65,6.65,0,0,1,.28.69c.24.69.52,1.38.8,2,.74,1.77,1.49,3.44,2.26,5,.19.41.39.79.58,1.18s.38.77.58,1.15c.68,1.33,1.38,2.6,2.07,3.79.1.16.21.32.3.49A41.42,41.42,0,0,0,188,224.78c.31.77.67,1.54,1,2.31.11.22.25.47.36.72.25.47.49.93.77,1.4.14.25.3.5.44.75.28.44.56.88.83,1.32.14.22.3.44.44.66.47.66.94,1.33,1.44,2a3.4,3.4,0,0,0,.3.39c.22.3.47.57.72.88l.33.36a2.43,2.43,0,0,0,.33.38c.16.19.33.39.49.55s.45.5.69.75.25.25.36.38a1.52,1.52,0,0,0,.22.22l.42.39s0,0,0,.06l.47.44c.08.08.16.13.25.22s.27.25.41.36l0,0c.17.17.36.31.52.47s.53.44.8.66.36.31.55.45.42.3.61.46a.35.35,0,0,1,.11.09c.16.13.36.25.52.38a2.43,2.43,0,0,0,.2.14c.14.11.3.2.44.31s.41.27.6.41a3.3,3.3,0,0,0,.42.27l.5.34.66.41c.19.13.41.27.61.38l.55.34.41.24c.17.08.3.17.44.25l.28.17.47.24c.19.11.38.2.58.3a4,4,0,0,0,.57.31.14.14,0,0,0,.09.05l.63.31s.05.05.09.05a5.27,5.27,0,0,0,.63.31l1,.44a4.2,4.2,0,0,1,.55.22.78.78,0,0,0,.14,0c.19.06.38.14.58.22L213,248c.22.08.42.14.61.22h0l.77.27a6.86,6.86,0,0,0,.8.28,5.67,5.67,0,0,0,.66.22l.55.17.55.16c.25.05.47.14.72.2.55.16,1.11.3,1.66.44.88.22,1.76.41,2.67.58l.74.13.86.17c.36.08.74.13,1.13.19l.61.08,1.21.17c.77.11,1.54.19,2.32.25s1.79.14,2.7.16l.91,0c.3,0,.61,0,.91,0h0a1,1,0,0,1,1,1,1,1,0,0,1-1,1,60,60,0,0,1-27.16-6.56,43.68,43.68,0,0,1-19-19.13,42.07,42.07,0,0,1-4-13,95.93,95.93,0,0,1-12.93-47.83,11.44,11.44,0,0,1,11.42-11.53h.24a90.8,90.8,0,0,1,25.26,3.58c1,.28,2,.61,3.06.94,1.55-1.16,3.12-2.26,4.74-3.31-22.5-31.07-91.68-112.62-149.84-32.58l-8.53,21.11c0,.32,0,.63.06,1,0-.33,0-.64-.06-1l-.1.25s-25.2,79.43,49.06,136.47a109.56,109.56,0,0,1,9.35,8c4.93,4.83,14.61,12.55,24.54,11,14.28-2.2,22.11-12.27,5.43-22.1s-4.41-25.54-4.41-25.54l.19.09c12.13-18.17,13.79-36.17,4.88-53.51a66.36,66.36,0,0,0-17.64-21.21,1,1,0,0,1-.23-1.4,1,1,0,0,1,1.41-.22,67.16,67.16,0,0,1,18.25,21.92,50.16,50.16,0,0,1,5.77,24.94c-.39,10.07-3.94,20.27-10.62,30.36,13.65,6.51,94.39,43.48,158.59,37.6,0,0,28.12-3.41,14.86-22.11,0,0,16.54-3,17-12.87A8.93,8.93,0,0,0,327.33,248.46Z" transform="translate(-52.39 -90.09)"/></g></g></g></svg>