<svg xmlns="http://www.w3.org/2000/svg" xmlns:xlink="http://www.w3.org/1999/xlink" width="1080" zoomAndPan="magnify" viewBox="0 0 810 809.999993" height="1080" preserveAspectRatio="xMidYMid meet" version="1.2"><defs><clipPath id="2ed1b613fd"><path d="M 310 391 L 337 391 L 337 425 L 310 425 Z M 310 391 "/></clipPath><clipPath id="f101277b08"><path d="M 323.332031 426.53125 C 345.511719 425.363281 344.582031 388.019531 320.375 388.558594 C 301.644531 388.976562 305.535156 427.476562 323.332031 426.53125 Z M 323.332031 426.53125 "/></clipPath><clipPath id="21a58ee8b7"><path d="M 357 399 L 384 399 L 384 433 L 357 433 Z M 357 399 "/></clipPath><clipPath id="90c1805419"><path d="M 360.011719 393.945312 L 390.550781 401.390625 L 381.453125 438.734375 L 350.914062 431.285156 Z M 360.011719 393.945312 "/></clipPath><clipPath id="ad0c867685"><path d="M 365.867188 434.527344 C 387.695312 438.648438 395.632812 402.144531 371.984375 396.9375 C 353.6875 392.902344 348.351562 431.226562 365.867188 434.527344 Z M 365.867188 434.527344 "/></clipPath><clipPath id="7d3d84c061"><path d="M 364.574219 405 L 369.613281 405 L 369.613281 408.75 L 364.574219 408.75 Z M 364.574219 405 "/></clipPath><clipPath id="b391a7f93b"><path d="M 367.089844 405 C 365.699219 405 364.574219 405.839844 364.574219 406.875 C 364.574219 407.910156 365.699219 408.75 367.089844 408.75 C 368.480469 408.75 369.605469 407.910156 369.605469 406.875 C 369.605469 405.839844 368.480469 405 367.089844 405 Z M 367.089844 405 "/></clipPath><clipPath id="ba4f0103fb"><path d="M 316.148438 394.710938 L 321.1875 394.710938 L 321.1875 398.460938 L 316.148438 398.460938 Z M 316.148438 394.710938 "/></clipPath><clipPath id="1467658d00"><path d="M 318.664062 394.710938 C 317.273438 394.710938 316.148438 395.550781 316.148438 396.585938 C 316.148438 397.621094 317.273438 398.460938 318.664062 398.460938 C 320.054688 398.460938 321.179688 397.621094 321.179688 396.585938 C 321.179688 395.550781 320.054688 394.710938 318.664062 394.710938 Z M 318.664062 394.710938 "/></clipPath></defs><g id="cafecc74c9"><g style="fill:#000000;fill-opacity:1;"><g transform="translate(728.999967, 742.400023)"><path style="stroke:none" d="M 4.5 0 L 0.671875 0 L 0.671875 -0.1875 C 1.003906 -0.195312 1.289062 -0.257812 1.53125 -0.375 C 1.769531 -0.5 1.890625 -0.671875 1.890625 -0.890625 L 1.890625 -6.703125 C 1.890625 -6.929688 1.757812 -7.097656 1.5 -7.203125 C 1.25 -7.316406 0.953125 -7.378906 0.609375 -7.390625 L 0.609375 -7.578125 L 4.5 -7.578125 L 4.5 -7.390625 C 4.164062 -7.378906 3.867188 -7.316406 3.609375 -7.203125 C 3.347656 -7.085938 3.21875 -6.914062 3.21875 -6.6875 L 3.21875 -0.875 C 3.21875 -0.4375 3.644531 -0.207031 4.5 -0.1875 Z M 4.5 0 "/></g></g><path style=" stroke:none;fill-rule:evenodd;fill:#000000;fill-opacity:1;" d="M 447.519531 447.226562 C 448.964844 459.292969 426.410156 479.570312 453.097656 474.410156 C 461.859375 472.714844 492.101562 454.996094 491.578125 437.546875 C 490.789062 411.332031 517.941406 415.425781 510.230469 378.550781 C 506.113281 358.867188 494.703125 348.878906 514.976562 347.65625 C 535.367188 346.421875 566.96875 368.898438 555.96875 344.839844 C 539.789062 309.429688 484.488281 333.199219 481.007812 332.183594 C 410.984375 311.726562 411 353.449219 379.941406 348.242188 C 372.722656 347.03125 352.222656 347.09375 347.714844 342.945312 C 330.734375 327.324219 310.121094 311.339844 308.035156 324.789062 C 306.777344 332.886719 311.621094 356.554688 308.035156 360.730469 C 304.054688 365.363281 276.097656 409.292969 303.09375 438.597656 C 243.054688 481.324219 255.925781 493.851562 261.320312 495.523438 C 267.40625 497.40625 280.25 495.597656 315.15625 475.457031 C 336.550781 463.117188 337.714844 467.089844 361.898438 470.769531 C 358.886719 480.691406 350.777344 500.679688 371.046875 497.375 C 393.554688 493.710938 406.144531 473.96875 413.449219 465.65625 C 422.621094 455.21875 440.742188 450.042969 447.519531 447.226562 Z M 447.519531 447.226562 "/><path style=" stroke:none;fill-rule:evenodd;fill:#ffffff;fill-opacity:1;" d="M 275.632812 391.511719 C 275.929688 391.519531 276.167969 391.1875 276.460938 391.199219 C 276.535156 391.199219 285.101562 393.710938 288.183594 394.90625 C 292.425781 396.546875 297.222656 398.925781 299.007812 399.792969 C 299.523438 400.042969 299.445312 400.152344 299.46875 400.722656 C 299.46875 400.726562 299.113281 401.089844 299.109375 401.09375 C 298.941406 401.167969 298.742188 401.171875 298.566406 401.128906 C 298.46875 401.113281 292.425781 399.371094 288.667969 398.003906 C 285.195312 396.742188 280.953125 394.691406 277.203125 392.878906 C 276.808594 392.6875 276.359375 392.589844 276.03125 392.308594 C 275.808594 392.109375 275.855469 391.710938 275.632812 391.511719 Z M 275.632812 391.511719 "/><path style=" stroke:none;fill-rule:evenodd;fill:#ffffff;fill-opacity:1;" d="M 272.433594 413.441406 C 272.722656 413.367188 272.855469 412.972656 273.140625 412.898438 C 273.214844 412.878906 283.140625 412.855469 286.804688 413.128906 C 291.84375 413.5 297.71875 414.421875 299.902344 414.75 C 300.472656 414.835938 300.433594 414.960938 300.628906 415.503906 C 300.628906 415.507812 300.390625 415.960938 300.382812 415.96875 C 300.246094 416.085938 300.058594 416.144531 299.878906 416.160156 C 299.777344 416.164062 292.78125 416.207031 288.347656 415.960938 C 284.238281 415.734375 279.066406 414.976562 274.480469 414.296875 C 274.007812 414.230469 273.5 414.269531 273.054688 414.082031 C 272.78125 413.964844 272.710938 413.554688 272.433594 413.441406 Z M 272.433594 413.441406 "/><path style=" stroke:none;fill-rule:evenodd;fill:#ffffff;fill-opacity:1;" d="M 412.921875 453.484375 C 412.644531 453.433594 412.375 453.6875 412.101562 453.632812 C 412.097656 453.632812 404.753906 449.601562 402.796875 448.367188 C 401.097656 447.292969 399.933594 446.558594 396.425781 444.007812 C 396.378906 443.972656 394.804688 442.804688 394.804688 442.800781 C 394.699219 442.65625 394.546875 442.53125 394.503906 442.355469 C 394.5 442.347656 394.570312 441.839844 394.574219 441.835938 C 395.003906 441.539062 395.023438 441.445312 395.523438 441.601562 C 395.554688 441.609375 399.160156 443.308594 400.894531 444.203125 C 404.4375 446.023438 405.9375 447.050781 409.546875 449.964844 C 410.285156 450.5625 412.765625 452.652344 412.769531 452.667969 C 412.828125 452.9375 412.859375 453.214844 412.921875 453.484375 Z M 412.921875 453.484375 "/><path style=" stroke:none;fill-rule:evenodd;fill:#ffffff;fill-opacity:1;" d="M 427.519531 437.757812 C 418.140625 435.609375 416.597656 434.515625 407.660156 432.433594 C 406.457031 432.152344 406.457031 432.144531 405.25 431.867188 C 404.710938 431.742188 404.921875 431.5 404.59375 431.058594 C 404.894531 430.925781 405.078125 430.589844 405.378906 430.464844 C 405.390625 430.453125 409.761719 430.667969 412.34375 431.066406 C 417.296875 431.820312 418.375 432.550781 427.824219 436.617188 C 428.496094 436.90625 427.707031 437.054688 427.519531 437.757812 Z M 427.519531 437.757812 "/><path style=" stroke:none;fill-rule:evenodd;fill:#ffffff;fill-opacity:1;" d="M 391.753906 454.207031 C 391.824219 454.433594 391.8125 454.441406 391.710938 454.648438 C 391.640625 454.78125 391.496094 454.867188 391.367188 454.941406 C 391.226562 455.027344 389.457031 455.660156 389.285156 455.722656 C 377.652344 459.890625 372.261719 459.289062 366.136719 457.585938 C 364.089844 457.015625 362.9375 456.679688 361.492188 456.410156 C 361.140625 456.347656 361.09375 456.414062 360.867188 456.136719 C 360.863281 456.132812 360.714844 455.613281 360.714844 455.609375 C 360.796875 455.453125 360.832031 455.257812 360.96875 455.144531 C 361.25 454.917969 361.285156 454.980469 361.648438 454.996094 C 365.8125 455.179688 369.265625 456.511719 375.847656 456.117188 C 379.074219 455.925781 382.972656 455.6875 390.941406 453.839844 C 391.328125 453.746094 391.414062 453.789062 391.449219 453.8125 C 391.679688 453.933594 391.675781 453.957031 391.753906 454.207031 Z M 391.753906 454.207031 "/><path style=" stroke:none;fill-rule:evenodd;fill:#ffffff;fill-opacity:1;" d="M 312.015625 444.601562 C 312.304688 444.628906 312.570312 444.347656 312.863281 444.375 C 312.984375 444.386719 319.128906 446.964844 321.628906 447.917969 C 321.722656 447.953125 322.847656 448.40625 325.210938 449.3125 C 327.050781 450.023438 327.671875 450.238281 331.339844 451.710938 C 331.863281 451.921875 331.792969 452.035156 331.871094 452.59375 C 331.871094 452.597656 331.546875 452.988281 331.542969 452.992188 C 331.382812 453.078125 331.1875 453.09375 331.007812 453.078125 C 331.003906 453.078125 329.097656 452.734375 329.046875 452.726562 C 321.59375 451.273438 320.335938 450.675781 313.765625 446.386719 C 313.648438 446.308594 312.335938 445.453125 312.3125 445.425781 C 312.125 445.203125 312.203125 444.824219 312.015625 444.601562 Z M 312.015625 444.601562 "/><path style=" stroke:none;fill-rule:evenodd;fill:#ffffff;fill-opacity:1;" d="M 323.332031 426.53125 C 345.511719 425.363281 344.582031 388.019531 320.375 388.558594 C 301.644531 388.976562 305.535156 427.476562 323.332031 426.53125 Z M 323.332031 426.53125 "/><g clip-rule="nonzero" clip-path="url(#2ed1b613fd)"><g clip-rule="evenodd" clip-path="url(#f101277b08)"><path style=" stroke:none;fill-rule:evenodd;fill:#000000;fill-opacity:1;" d="M 323.320312 424.664062 C 341.597656 423.632812 340.832031 390.726562 320.886719 391.203125 C 305.449219 391.566406 308.652344 425.496094 323.320312 424.664062 Z M 323.320312 424.664062 "/></g></g><path style=" stroke:none;fill-rule:evenodd;fill:#ffffff;fill-opacity:1;" d="M 365.867188 434.527344 C 387.695312 438.648438 395.632812 402.144531 371.984375 396.9375 C 353.6875 392.902344 348.351562 431.226562 365.867188 434.527344 Z M 365.867188 434.527344 "/><g clip-rule="nonzero" clip-path="url(#21a58ee8b7)"><g clip-rule="nonzero" clip-path="url(#90c1805419)"><g clip-rule="evenodd" clip-path="url(#ad0c867685)"><path style=" stroke:none;fill-rule:evenodd;fill:#000000;fill-opacity:1;" d="M 366.300781 432.710938 C 384.300781 436.039062 391.347656 403.886719 371.855469 399.625 C 356.769531 396.320312 351.851562 430.042969 366.300781 432.710938 Z M 366.300781 432.710938 "/></g></g></g><path style=" stroke:none;fill-rule:evenodd;fill:#ffffff;fill-opacity:1;" d="M 455.214844 368.996094 C 452.394531 366.539062 429.199219 364.527344 423.335938 364.011719 C 413.691406 363.15625 398.917969 362.113281 398.859375 362.082031 C 398.707031 362.007812 398.515625 361.984375 398.398438 361.851562 C 398.394531 361.847656 398.226562 361.363281 398.230469 361.363281 C 398.304688 361.210938 398.328125 361.015625 398.457031 360.902344 C 398.585938 360.789062 398.773438 360.761719 398.941406 360.730469 C 398.941406 360.730469 400.179688 360.78125 402.128906 360.863281 C 419.574219 361.59375 451.066406 362.824219 456.621094 366.644531 C 457.046875 366.9375 457.640625 367.386719 458.007812 368.707031 C 458.628906 370.941406 457.089844 372.496094 453.621094 376.160156 C 447.820312 382.285156 439.367188 391.261719 422.878906 412.148438 C 422.875 412.160156 422.691406 412.394531 422.691406 412.394531 C 422.542969 412.476562 422.417969 412.617188 422.25 412.644531 C 422.242188 412.644531 421.761719 412.515625 421.761719 412.511719 C 421.679688 412.367188 421.535156 412.246094 421.511719 412.078125 C 421.492188 411.914062 421.570312 411.742188 421.636719 411.589844 C 421.636719 411.589844 423.871094 408.527344 425.765625 405.988281 C 444.667969 380.699219 451.957031 374.460938 454.730469 370.898438 C 455.605469 369.761719 455.46875 369.574219 455.214844 368.996094 Z M 455.214844 368.996094 "/><path style=" stroke:none;fill-rule:evenodd;fill:#ffffff;fill-opacity:1;" d="M 469.222656 432.359375 C 469.386719 432.578125 469.394531 432.589844 469.351562 432.859375 C 469.339844 432.917969 469.320312 433.070312 468.910156 433.433594 C 465.949219 436.074219 463.003906 439.320312 458.542969 441.925781 C 455.574219 443.664062 452.613281 444.890625 449.433594 445.867188 C 448.902344 446.035156 448.878906 445.90625 448.492188 445.511719 C 448.488281 445.511719 448.488281 444.96875 448.488281 444.964844 C 448.511719 444.90625 448.566406 444.777344 449.085938 444.519531 C 453.347656 442.375 456.066406 440.359375 460.886719 437.160156 C 462.660156 435.980469 468.0625 432.277344 468.296875 432.210938 C 468.742188 432.09375 468.75 432.097656 468.792969 432.101562 C 469.054688 432.140625 469.066406 432.144531 469.222656 432.359375 Z M 469.222656 432.359375 "/><g clip-rule="nonzero" clip-path="url(#7d3d84c061)"><g clip-rule="nonzero" clip-path="url(#b391a7f93b)"><path style=" stroke:none;fill-rule:nonzero;fill:#ffffff;fill-opacity:1;" d="M 364.574219 405 L 369.597656 405 L 369.597656 408.75 L 364.574219 408.75 Z M 364.574219 405 "/></g></g><g clip-rule="nonzero" clip-path="url(#ba4f0103fb)"><g clip-rule="nonzero" clip-path="url(#1467658d00)"><path style=" stroke:none;fill-rule:nonzero;fill:#ffffff;fill-opacity:1;" d="M 316.148438 394.710938 L 321.171875 394.710938 L 321.171875 398.460938 L 316.148438 398.460938 Z M 316.148438 394.710938 "/></g></g></g></svg>