<svg width="307" height="307" viewBox="0 0 307 307" fill="none" xmlns="http://www.w3.org/2000/svg">
<path d="M72.1925 112.286H94.9009C95.4738 112.286 96.0311 112.396 96.5675 112.62C97.0988 112.839 97.5675 113.156 97.979 113.563C98.3853 113.969 98.703 114.443 98.9217 114.974C99.1405 115.51 99.255 116.063 99.255 116.641V241.537C99.255 242.115 99.1405 242.672 98.9217 243.203C98.703 243.74 98.3853 244.208 97.979 244.62C97.5675 245.026 97.0988 245.339 96.5675 245.563C96.0311 245.781 95.4738 245.891 94.9009 245.891H72.1925C71.6144 245.891 71.0571 245.781 70.5259 245.563C69.9894 245.339 69.5207 245.026 69.1144 244.62C68.703 244.208 68.3905 243.74 68.1665 243.203C67.9478 242.672 67.8384 242.115 67.8384 241.537V116.641C67.8384 116.063 67.9478 115.51 68.1665 114.974C68.3905 114.443 68.703 113.969 69.1144 113.563C69.5207 113.156 69.9894 112.839 70.5259 112.62C71.0571 112.396 71.6144 112.286 72.1925 112.286Z" fill="#8B1912"/>
<path d="M101.833 81.474C101.802 70.7656 94.1198 63 83.5469 63C72.974 63 65 70.974 65 81.5469C65 86.4688 66.7917 91.0469 70.0521 94.4375C73.401 97.9167 78.0104 99.8385 83.0313 99.8385C88.5938 99.8385 93.5573 97.8802 97.0156 94.2969C100.255 90.9479 101.964 86.4271 101.839 81.5469C101.839 81.526 101.833 81.5052 101.833 81.474Z" fill="#8B1912"/>
<path d="M226.214 121.073C214.906 110.958 201.656 109.448 194.766 109.448C184.464 109.448 174.651 112.198 166.38 117.406C162.766 119.682 159.5 122.385 156.583 125.505L156.01 116.359C155.979 115.807 155.844 115.281 155.604 114.776C155.37 114.276 155.047 113.833 154.646 113.458C154.24 113.078 153.781 112.786 153.26 112.583C152.745 112.38 152.213 112.276 151.656 112.276H131.542C131.24 112.276 130.943 112.307 130.651 112.37C130.359 112.432 130.073 112.521 129.797 112.641C129.526 112.76 129.266 112.906 129.021 113.083C128.776 113.255 128.552 113.453 128.349 113.672C128.146 113.891 127.964 114.13 127.812 114.385C127.656 114.646 127.531 114.911 127.432 115.198C127.333 115.479 127.26 115.771 127.224 116.068C127.187 116.365 127.177 116.661 127.198 116.958C127.911 126.49 128.219 136.505 128.219 150.438V241.536C128.219 242.115 128.328 242.672 128.552 243.203C128.771 243.74 129.083 244.208 129.495 244.62C129.901 245.026 130.375 245.339 130.906 245.563C131.437 245.781 131.995 245.891 132.573 245.891H155.281C155.859 245.891 156.417 245.781 156.948 245.563C157.484 245.339 157.953 245.026 158.359 244.62C158.771 244.208 159.083 243.74 159.307 243.203C159.526 242.672 159.635 242.115 159.635 241.536V166.448C159.635 162.917 160.104 159.604 160.922 157.354C160.948 157.281 160.969 157.214 160.995 157.135C164.062 147.12 173.38 136.99 187.281 136.99C195.88 136.99 202.057 139.932 206.161 145.984C209.859 151.453 211.818 159.599 211.818 169.536V241.536C211.818 242.115 211.932 242.672 212.151 243.203C212.375 243.74 212.687 244.208 213.094 244.62C213.505 245.026 213.974 245.339 214.51 245.563C215.042 245.781 215.599 245.891 216.177 245.891H238.885C239.464 245.891 240.016 245.781 240.552 245.563C241.083 245.339 241.557 245.026 241.964 244.62C242.37 244.208 242.687 243.74 242.906 243.203C243.13 242.672 243.24 242.115 243.24 241.536V166.964C243.24 156.339 241.63 146.922 238.464 138.974C235.62 131.823 231.5 125.802 226.214 121.073Z" fill="#8B1912"/>
<mask id="mask0_2027_17" style="mask-type:luminance" maskUnits="userSpaceOnUse" x="0" y="0" width="307" height="307">
<path d="M0 0H307V307H0V0Z" fill="white"/>
</mask>
<g mask="url(#mask0_2027_17)">
<path d="M267.036 0H39.9688C17.9271 0 0 17.9271 0 39.9635V267.031C0 289.068 17.9271 307 39.9688 307H267.036C289.073 307 307 289.068 307 267.031V39.9635C307 17.9271 289.073 0 267.036 0ZM278.938 41.901V265.094C278.938 266.005 278.849 266.906 278.672 267.797C278.49 268.688 278.229 269.552 277.88 270.391C277.531 271.229 277.104 272.026 276.599 272.781C276.099 273.536 275.521 274.234 274.88 274.875C274.24 275.521 273.542 276.094 272.786 276.599C272.031 277.104 271.234 277.531 270.391 277.88C269.552 278.224 268.688 278.49 267.797 278.667C266.906 278.844 266.005 278.932 265.099 278.938H41.9063C40.9948 278.932 40.0938 278.844 39.2031 278.667C38.3125 278.49 37.4479 278.224 36.6094 277.88C35.7708 277.531 34.974 277.104 34.2188 276.599C33.4635 276.094 32.7656 275.521 32.125 274.875C31.4792 274.234 30.9063 273.536 30.401 272.781C29.8958 272.026 29.4688 271.229 29.125 270.391C28.776 269.552 28.5104 268.688 28.3333 267.797C28.1563 266.906 28.0677 266.005 28.0625 265.094V41.901C28.0677 40.9948 28.1563 40.0938 28.3333 39.2031C28.5104 38.3125 28.776 37.4479 29.125 36.6094C29.4688 35.7656 29.8958 34.9688 30.401 34.2135C30.9063 33.4583 31.4792 32.7604 32.125 32.1198C32.7656 31.4792 33.4635 30.901 34.2188 30.401C34.974 29.8958 35.7708 29.4688 36.6094 29.1198C37.4479 28.7708 38.3125 28.5104 39.2031 28.3281C40.0938 28.151 40.9948 28.0625 41.9063 28.0625H265.099C266.005 28.0625 266.906 28.151 267.797 28.3281C268.688 28.5104 269.552 28.7708 270.391 29.1198C271.234 29.4688 272.031 29.8958 272.786 30.401C273.542 30.901 274.24 31.4792 274.88 32.1198C275.521 32.7604 276.099 33.4583 276.599 34.2135C277.104 34.9688 277.531 35.7656 277.88 36.6094C278.229 37.4479 278.49 38.3125 278.672 39.2031C278.849 40.0938 278.938 40.9948 278.938 41.901Z" fill="#8B1912"/>
</g>
</svg>
