<svg xmlns="http://www.w3.org/2000/svg" viewBox="0 0 47.05 67.69"><defs><style>.cls-1{fill:#8b1912;fill-rule:evenodd;}</style></defs><g id="Capa_2" data-name="Capa 2"><g id="Capa_1-2" data-name="Capa 1"><path class="cls-1" d="M19.53,62.7c5.8-9.07,9.72-37.21,12.79-50.16,3.23,6.35,14.42,26.58,5,35.32a32.25,32.25,0,0,1-4.12,3c1.37,1.44,5-1.92,6.14-2.88A29.81,29.81,0,0,0,44.05,42c9-14.64-4.76-25.29-9.21-35C31.69.07,34.42.36,31.76,0a24.37,24.37,0,0,0-1.85,5.68L27,24.25l-3.59,19.3-2,7.77c-4.33-1.23-10.88-1.52-15,.54-5.23,2.67-7.86,8.07-5.84,12C3.9,70.25,16.28,67.78,19.53,62.7Z"/></g></g></svg>