<svg xmlns="http://www.w3.org/2000/svg" viewBox="0 0 73.65 73.65"><defs><style>.cls-1{fill:#eae3d8;}.cls-2{fill:none;stroke:#683c11;stroke-miterlimit:10;}.cls-3{fill:#bc878c;}.cls-4{fill:#8c1b13;}</style></defs><g id="Capa_2" data-name="Capa 2"><g id="Capa_3" data-name="Capa 3"><circle class="cls-1" cx="36.83" cy="36.83" r="36.33"/><circle class="cls-2" cx="36.83" cy="36.83" r="36.33"/><circle class="cls-1" cx="36.83" cy="36.83" r="36.33"/><circle class="cls-1" cx="36.83" cy="36.83" r="36.33"/><circle class="cls-1" cx="36.83" cy="36.83" r="36.33"/><circle class="cls-1" cx="36.83" cy="36.83" r="36.33"/><circle class="cls-1" cx="36.83" cy="36.83" r="36.33"/><circle class="cls-1" cx="36.83" cy="36.83" r="36.33"/><circle class="cls-1" cx="36.83" cy="36.83" r="36.33"/><path class="cls-3" d="M22.68,25.26v-2.8h6.2V26h-.66Zm6.86,24.66,5.53.71v2.81H22.68V50.63l5.54-.71ZM25.25,37.19c0-4.89,0-9.84-.11-14.73h7.33c-.11,4.8-.11,9.74-.11,14.73v1.47c0,4.94,0,9.88.11,14.78H25.14c.11-4.8.11-9.74.11-14.73Zm3.7-.81h4.21c3.52,0,4.33-2.75,4.33-5.51,0-3.75-1.58-5.46-4.25-5.46H28.88V22.46h6.41c5.82,0,9,2.9,9,7.7,0,3.47-1.94,7.22-9.08,7.65v-.53c7,.19,8.39,3,8.9,8.41l.66,7.13-3.74-3,6.16.85v2.81a12.7,12.7,0,0,1-4.54.76c-3.45,0-5.61-1.33-5.94-5.61l-.37-4.65c-.22-2.95-1-4.71-2.82-4.71H29Z"/><path class="cls-3" d="M45.59,25.26v-2.8h6.19V26h-.66Zm6.19,24.66v3.52H45.59V50.63l5.53-.71ZM48.15,37.19c0-4.89,0-9.84-.11-14.73h7.47c-.11,4.8-.11,9.74-.11,14.73v1.47c0,4.94,0,9.88.11,14.78H48c.11-4.8.11-9.74.11-14.73Zm3.63,13.3H56c3.59,0,6-4.51,6-12.59s-2.38-12.49-6-12.49H51.78V22.46H56.5c8.14,0,12.79,6,12.79,15.35,0,9.78-5.06,15.63-13.41,15.63h-4.1Z"/><path class="cls-4" d="M20.86,45.56c0-2.12-.84-3.09-2.83-4.15l-1.75-.92c-4.93-2.61-7.59-5.25-7.59-10.28,0-5.38,3.86-8.64,10.26-8.64a14.39,14.39,0,0,1,7.91,2.2l-.35,6.35H22.37l-.92-6.66,3.46,1.19v2.21c-2.18-1.54-3.69-2.51-5.72-2.51A3.56,3.56,0,0,0,15.61,28c0,2.16,1.11,3.22,3.26,4.37l2,1.06C25.87,36,28,38.41,28,43c0,5.2-3.46,9.08-10.78,9.08-3,0-6.52-.62-9-2.29l.24-6.7h4.21l1,7.27-3.26-1V47.23c2.54,1.32,4.29,2.07,6.8,2.07A3.46,3.46,0,0,0,20.86,45.56Z"/></g></g></svg>