<svg xmlns="http://www.w3.org/2000/svg" viewBox="0 0 72.65 72.65"><defs><style>.cls-1{fill:#eae3d8;}.cls-2{fill:#bc878c;}.cls-3{fill:#8c1b13;}</style></defs><g id="Capa_2" data-name="Capa 2"><g id="Capa_3" data-name="Capa 3"><circle class="cls-1" cx="36.33" cy="36.33" r="36.33"/><circle class="cls-1" cx="36.33" cy="36.33" r="36.33"/><circle class="cls-1" cx="36.33" cy="36.33" r="36.33"/><circle class="cls-1" cx="36.33" cy="36.33" r="36.33"/><circle class="cls-1" cx="36.33" cy="36.33" r="36.33"/><circle class="cls-1" cx="36.33" cy="36.33" r="36.33"/><circle class="cls-1" cx="36.33" cy="36.33" r="36.33"/><circle class="cls-1" cx="36.33" cy="36.33" r="36.33"/><path class="cls-2" d="M21.34,33.13V30.88h6.19v2.83h-.66ZM28.19,53l5.53.57v2.25H21.34V53.54L26.87,53ZM23.9,42.72c0-3.93,0-7.91-.11-11.84h7.33C31,34.74,31,38.71,31,42.72v1.19c0,4,0,8,.11,11.88H23.79c.11-3.86.11-7.83.11-11.84Zm3.7-.64h4.21c3.52,0,4.33-2.22,4.33-4.44,0-3-1.58-4.39-4.25-4.39H27.53V30.88h6.41c5.82,0,9,2.33,9,6.19,0,2.79-1.94,5.81-9.08,6.15V42.8c7,.15,8.39,2.41,8.9,6.77l.66,5.73-3.74-2.45,6.16.69v2.25a15.25,15.25,0,0,1-4.54.62c-3.45,0-5.61-1.07-5.94-4.51L35,48.15c-.22-2.37-1-3.78-2.82-3.78H27.6Z"/><path class="cls-2" d="M46.84,33.13V30.88H53v2.83h-.66ZM53,53v2.82H46.84V53.54L52.37,53ZM49.4,42.72c0-3.93,0-7.91-.11-11.84h7.48c-.11,3.86-.11,7.83-.11,11.84v1.19c0,4,0,8,.11,11.88H49.29c.11-3.86.11-7.83.11-11.84ZM53,53.42h4.21c3.59,0,6-3.63,6-10.12s-2.39-10-6-10H53V30.88h4.73c8.13,0,12.78,4.85,12.78,12.34,0,7.87-5.05,12.57-13.41,12.57H53Z"/><path class="cls-3" d="M22.89,36.78c0-2.2-1-3.2-3.25-4.3l-2-1c-5.68-2.7-8.75-5.45-8.75-10.67,0-5.59,4.45-9,11.82-9a18,18,0,0,1,9.12,2.29l-.42,6.6H24.63l-1.05-6.92,4,1.24v2.29C25,15.76,23.3,14.75,21,14.75a3.92,3.92,0,0,0-4.13,3.76c0,2.24,1.29,3.34,3.76,4.53l2.29,1.1c5.77,2.75,8.2,5.22,8.2,10,0,5.4-4,9.43-12.41,9.43-3.44,0-7.52-.64-10.36-2.38l.28-7h4.85l1.19,7.56-3.75-1.06v-2.2c2.93,1.38,4.95,2.16,7.83,2.16S22.89,38.84,22.89,36.78Z"/></g></g></svg>