<svg xmlns="http://www.w3.org/2000/svg" xmlns:xlink="http://www.w3.org/1999/xlink" viewBox="0 0 129.05 129.05"><defs><style>.cls-1{fill:none;}.cls-2{clip-path:url(#clip-path);}.cls-3{fill:#8b1912;}</style><clipPath id="clip-path" transform="translate(-0.43 -0.11)"><rect class="cls-1" width="129.95" height="129.86"/></clipPath></defs><g id="Capa_2" data-name="Capa 2"><g id="Capa_1-2" data-name="Capa 1"><g class="cls-2"><path class="cls-3" d="M64.73.11A64.49,64.49,0,0,0,15,105.49a5.5,5.5,0,0,1,.86,1.46,6,6,0,0,1,.41,1.65,5.82,5.82,0,0,1-.71,3.3L10,121.85a3.61,3.61,0,0,0,4,5.25l18.82-4.79a5.54,5.54,0,0,1,3.92.4,63.53,63.53,0,0,0,26.68,6.44A64.53,64.53,0,1,0,64.73.11ZM65,121.21a53.93,53.93,0,0,1-5.54-.27q-2.77-.27-5.5-.81a55,55,0,0,1-5.38-1.35c-1.77-.54-3.52-1.16-5.23-1.87s-3.38-1.5-5-2.37-3.22-1.83-4.76-2.86-3-2.13-4.46-3.3S26.26,106,25,104.65s-2.55-2.69-3.73-4.12a55.32,55.32,0,0,1-3.31-4.46q-1.55-2.31-2.85-4.76a53.57,53.57,0,0,1-2.38-5q-1.06-2.57-1.87-5.23c-.53-1.77-1-3.57-1.35-5.38S8.83,72,8.65,70.19s-.27-3.7-.27-5.55A56.58,56.58,0,1,1,65,121.21Z" transform="translate(-0.43 -0.11)"/></g><path class="cls-3" d="M54.84,37.14l0,0,3.38,6.69A7.64,7.64,0,0,1,59,46.17a7.4,7.4,0,0,1-.83,4.67,7.56,7.56,0,0,1-1.47,1.9,7.52,7.52,0,0,0-2.27,4.14,7.31,7.31,0,0,0-.06,2.38A7.71,7.71,0,0,0,55,61.55,39.43,39.43,0,0,0,65.93,75.27a7.72,7.72,0,0,0,4.15,1.51,7.41,7.41,0,0,0,4.3-1.08l2.17-1.32a7.4,7.4,0,0,1,3.21-1.06,7.32,7.32,0,0,1,3.34.46l8.64,3.28a7,7,0,0,1,1.31.66,7.42,7.42,0,0,1,2.13,2A7.71,7.71,0,0,1,95.91,81a7.59,7.59,0,0,1,.66,2.86,7.13,7.13,0,0,1-.11,1.46,6.34,6.34,0,0,1-.38,1.42,7.59,7.59,0,0,1-.35.77l-2.39,4.64a7.27,7.27,0,0,1-1.51,2,7.63,7.63,0,0,1-2.1,1.4,7.26,7.26,0,0,1-2.43.62A7.56,7.56,0,0,1,84.79,96c-13.56-3.51-45.89-15.71-48.5-52.6a7.89,7.89,0,0,1,.16-2.17,7.38,7.38,0,0,1,2.12-3.76,7.64,7.64,0,0,1,1.77-1.27l4.4-2.26a7,7,0,0,1,1.37-.54,8,8,0,0,1,1.45-.27,7.23,7.23,0,0,1,1.47,0,7,7,0,0,1,1.43.31A7.33,7.33,0,0,1,53,34.85a7.44,7.44,0,0,1,1.82,2.29Z" transform="translate(-0.43 -0.11)"/></g></g></svg>